<?xml version="1.0" encoding="utf-8"?>
<!-- Generator: Adobe Illustrator 24.0.0, SVG Export Plug-In . SVG Version: 6.00 Build 0)  -->
<svg version="1.1" id="_x3C_Layer_x3E_" xmlns="http://www.w3.org/2000/svg" xmlns:xlink="http://www.w3.org/1999/xlink" x="0px"
	 y="0px" viewBox="0 0 1320.7 1005.3" style="enable-background:new 0 0 1320.7 1005.3;" xml:space="preserve">
<style type="text/css">
	.st0{display:none;fill:#FAFAFA;}
	.st1{fill:#E3DCD2;}
	.st2{fill:#EFF8FF;}
	.st3{fill:#FF556F;}
	.st4{fill:#FFFFFF;}
	.st5{fill:#1D3B54;}
	.st6{fill:#A1A5B3;}
	.st7{fill:#9497A3;}
	.st8{fill:#BCC0CF;}
	.st9{fill:#D3D7E8;}
	.st10{fill:#EDE5DF;}
	.st11{fill:#285173;}
	.st12{fill:#EEA886;}
	.st13{fill:#FCF5F5;}
	.st14{fill:#A9ADBA;}
	.st15{fill:#1C4154;}
	.st16{fill:#2A617D;}
	.st17{fill:#EB4747;}
	.st18{fill:#A83333;}
	.st19{fill:#E8734D;}
	.st20{fill:#446580;}
	.st21{fill:#FACA7D;}
	.st22{fill:#FFF8E6;}
	.st23{fill:#385369;}
	.st24{fill:#CF8C6C;}
	.st25{fill:#DB9C7C;}
	.st26{fill:#F7F0F0;}
	.st27{fill:#31485C;}
	.st28{fill:#754836;}
	.st29{fill:#555C94;}
	.st30{fill:#FAB546;}
	.st31{fill:#9C2F2F;}
	.st32{fill:#A77860;}
	.st33{opacity:0.99;fill:#CF973A;}
</style>
<rect x="-100.3" y="-358.7" class="st0" width="3140.1" height="1660"/>
<g>
	<rect x="207.7" class="st1" width="1045.7" height="931.2"/>
</g>
<g>
	<path class="st2" d="M498.7,676.4h-61.2v-25.3h61.2V676.4z M440.1,673.9h56.1v-20.2h-56.1V673.9z"/>
</g>
<g>
	<path class="st2" d="M528.1,699.2h-61.2v-25.3h61.2V699.2z M469.4,696.6h56.1v-20.2h-56.1V696.6z"/>
</g>
<g>
	<path class="st2" d="M869.1,119.2h-61.2V93.9h61.2V119.2z M810.5,116.6h56.1V96.4h-56.1V116.6z"/>
</g>
<g>
	<path class="st2" d="M884.8,96.4h-61.2V71.2h61.2V96.4z M826.1,93.9h56.1V73.7h-56.1V93.9z"/>
</g>
<g>
	<path class="st2" d="M898.4,141.9h-61.2v-25.3h61.2V141.9z M839.8,139.4h56.1v-20.2h-56.1V139.4z"/>
</g>
<g>
	<g>
		<ellipse class="st3" cx="1247.2" cy="974.4" rx="67.4" ry="8.5"/>
	</g>
	<g>
		<path class="st3" d="M1320.7,983.7c0,3.1-19.8,5.6-44.3,5.6s-44.3-2.5-44.3-5.6c0-3.1,19.8-5.6,44.3-5.6
			S1320.7,980.7,1320.7,983.7z"/>
	</g>
	<g>
		<g>
			<polygon class="st3" points="1253.4,971.7 1198.8,972.1 1198.4,907.8 1199.6,907.8 1201.9,907.8 1249.5,907.5 1251.8,907.5 
				1253,907.5 			"/>
		</g>
	</g>
	<g>
		<g>
			
				<rect x="1198.6" y="925.7" transform="matrix(1 -6.275736e-03 6.275736e-03 1 -5.9302 7.7125)" class="st4" width="54.6" height="46.2"/>
		</g>
	</g>
	<g>
		<g>
			<path class="st5" d="M1249.5,907.5c-1.6,12-11.5,21.4-23.6,21.4c-12.1,0.1-22.2-9.1-23.9-21.1l-2.3,0
				c1.8,13.1,12.9,23.2,26.2,23.2c13.3-0.1,24.3-10.3,25.9-23.5L1249.5,907.5z"/>
		</g>
	</g>
</g>
<g>
	<g>
		<g>
			<g>
				
					<rect x="97.3" y="686.8" transform="matrix(-1.836970e-16 1 -1 -1.836970e-16 805.7018 603.3625)" class="st6" width="7.7" height="35.4"/>
			</g>
		</g>
		<g>
			<rect x="70.9" y="737.1" class="st6" width="35.4" height="7.7"/>
		</g>
		<g>
			<rect x="58.4" y="773.6" class="st6" width="35.4" height="7.7"/>
		</g>
		<g>
			<rect x="45.9" y="810" class="st6" width="35.4" height="7.7"/>
		</g>
		<g>
			<rect x="33.4" y="846.4" class="st6" width="35.4" height="7.7"/>
		</g>
		<g>
			<rect x="20.9" y="882.8" class="st6" width="35.4" height="7.7"/>
		</g>
		<g>
			<g>
				
					<rect x="22.3" y="905.4" transform="matrix(-1.836970e-16 1 -1 -1.836970e-16 949.2027 896.9848)" class="st6" width="7.7" height="35.4"/>
			</g>
		</g>
	</g>
	<g>
		<g>
			<g>
				
					<rect x="131.8" y="772.1" transform="matrix(-1.836970e-16 1 -1 -1.836970e-16 1003.1872 734.1252)" class="st7" width="5.5" height="193.1"/>
			</g>
		</g>
	</g>
	<g>
		<g>
			<g>
				
					<rect x="82.7" y="482.6" transform="matrix(0.9475 0.3199 -0.3199 0.9475 239.0283 10.5302)" class="st8" width="9.5" height="500.7"/>
			</g>
		</g>
	</g>
	<g>
		<g>
			<g>
				
					<rect x="195.2" y="578" transform="matrix(-0.9475 0.3199 -0.3199 -0.9475 637.0345 1454.3451)" class="st9" width="7.7" height="403"/>
			</g>
		</g>
	</g>
	<g>
		<g>
			<g>
				
					<rect x="130.7" y="635.3" transform="matrix(-1.836970e-16 1 -1 -1.836970e-16 794.6842 525.6223)" class="st8" width="7.7" height="49.7"/>
			</g>
		</g>
	</g>
</g>
<g>
	<path class="st10" d="M1140,739.1h-104.9c-3.9,0-7-3.1-7-7V627.2c0-3.9,3.1-7,7-7H1140c3.9,0,7,3.1,7,7v104.9
		C1147,736,1143.9,739.1,1140,739.1z"/>
	<path class="st10" d="M1145.5,757.8h-66.3c-2.4,0-4.4-2-4.4-4.4V687c0-2.4,2-4.4,4.4-4.4h66.3c2.4,0,4.4,2,4.4,4.4v66.3
		C1149.9,755.8,1148,757.8,1145.5,757.8z"/>
	<rect x="1130.4" y="694.3" class="st11" width="30.4" height="48.2"/>
	<path class="st12" d="M1113.9,728.7c0,0,2.1-0.6,3.2-2.1c1.9-2.5,1.4-7.3,5.8-8.2c4.4-0.9,10.3,11.9,10,14.7
		c-0.3,2.8-5.9,5.9-15.1,6.7C1108.5,740.7,1113.9,728.7,1113.9,728.7z"/>
	<path class="st12" d="M1121.5,719c0,0,5.5-3.9,12.1-7.5c5.8-3.2,13.2-5.9,14.1-4.9c2.2,2.1-4.8,4.7-10.3,8.2
		c-5.1,3.2-4.2,2.7-4.2,2.7s-0.4-0.1,5.8-2.6c6.7-2.7,13.8-4.7,14.9-3.6c0.5,0.6,1.6,2.7-1.3,3c1.5-0.5,1.2-0.7,1.4-0.1
		c1.2,3-8.1,8.4-11.8,10.6c2.8-1.6,5.1-2.5,4.6-0.1c-0.6,2.7-14,9.8-18.6,12.8C1123.2,740.7,1121.5,719,1121.5,719z"/>
	<path class="st13" d="M1016.6,635.1c0,0-14-1-23.9,0c-9.9,1-23.6,9.1-31.8,11.4c-8.3,2.3-28.2,15.8-27.7,17.6
		c0.5,1.8,8.3,23.7,22.6,41.4C967.9,720.7,1016.6,635.1,1016.6,635.1z"/>
	<path class="st14" d="M986.3,643.9c0,0-15.1,11.2-20.4,21.4c-5.3,10.3-7.1,22.5-7.1,22.5L986.3,643.9z"/>
	<path class="st15" d="M997.8,977c0,0,4.3,4.6,6.8,5.8c2.5,1.2,32.3,6.3,34.3,8.8c2,2.4,2,12-5.7,12s-33.3-0.1-37.6,0
		c-4.3,0.1-22.5,3.8-24.4,0c-1.9-3.8-1.7-21.4,1.6-25.6C976.1,973.7,997.8,977,997.8,977z"/>
	<path class="st16" d="M996.8,971.6l0.9,5.4c0,0-8,3.6-25,0.9v-5.5L996.8,971.6z"/>
	<path class="st15" d="M815.8,962.2c0,0-4.7,5.5-5,8.9c-0.3,3.4-6.1,18.2-3.9,21.8c2.2,3.6,19.2,4.2,27.6,2.8
		c8.5-1.3,27,1.5,28.9-2.2c1.9-3.6,3-9-2.6-11c-5.5-2.1-18.2-7.5-20.5-13.1C838.1,963.8,815.8,962.2,815.8,962.2z"/>
	<path class="st16" d="M842.7,963.4l-2.4,6.1c0,0-24.3-1.8-24.5-7.3l7.7-11.2L842.7,963.4z"/>
	<g>
		<g>
			<path class="st12" d="M1042.6,624.7c0,0-13.6,11.5-17.4,10.6c-3.9-0.9,13.3,24.4,13.3,24.4s16.3-16.1,20-16.6
				C1062.2,642.6,1042.6,624.7,1042.6,624.7z"/>
		</g>
	</g>
	<path class="st13" d="M1046.1,719.6c-1.2,1.6-2.1,2.8-2.7,3.3c-0.4,0.4-0.9,0.8-1.5,1.2c0,0,0,0,0,0c-5.5,4.4-17.8,12.9-23.5,16
		c-6.3,3.4-21.6,33.4-21.6,33.4s-53-5-65.9-34.2c0,0,9.2-20.5,17.5-32.6c8.4-12.1,26.7-55.8,36.4-62c9.7-6.2,18.1-10.3,37.2-9.7
		c19.2,0.5,29.8,15.7,29.8,15.7s14.6,15.6,16,23.9C1069.1,681.9,1053.2,709.6,1046.1,719.6z"/>
	<path class="st13" d="M1043.5,670.2c-4.6,2.8-5.4,3.7-4.9,16.9c0.5,13.2,6,23.9,6.4,27.5c0.4,3.6,7.7,39.8,9.8,41.8
		c2,2,26.2-2.7,31.1-4.2c7.3-2.3,38.3-12.8,38.3-12.8l-6.8-14.2c0,0-39.1,8.7-40.4,5.7c-1.3-3.1-4.3-28.7-5.4-34.3
		c-1.1-5.6,0.8-14.3-5.9-27.6C1059.9,657.2,1043.5,670.2,1043.5,670.2z"/>
	<path class="st17" d="M997.7,769.7c0,0,8.1,9,10.6,11.7c2.5,2.7,37.5,55.7,40.2,62c2.7,6.3-13.4,50.8-20,66.4
		c-3.5,8.2-26.3,64.3-25.6,65.6c0.7,1.3-24.2,2.1-35.4-3.7c0,0,16-47.5,19.4-56.8c5.1-14.1,22.8-53,23.3-56.8
		c0.5-3.8-28.6-34.9-38.3-40.9c-9.7-5.9-33.4-27-36.1-29.7c-2.7-2.7-18-9.9-16.5-23.6c1.4-13.7,11.6-24.5,11.6-24.5L997.7,769.7z"/>
	<path class="st17" d="M954.1,803.5c0,0-1.5,4-3.6,9.6c-4.6,12-12,31.4-13.2,34.5c-1.8,4.5-10.8,23.9-15.1,27.7
		c-4.3,3.8-75.3,89-75.5,89.7c-0.2,0.7-26.6-12.9-28.2-18.2c0,0,38.5-50.2,44.4-57.5c5.9-7.4,18.3-18.3,22.5-35.8
		c4.1-17.4,33.8-84.5,33.9-87c0,0,4.8-20.7,11.7-27c6.9-6.3,32.1,1.1,36.1,14.2C970.9,766.8,954.1,803.5,954.1,803.5z"/>
	<path class="st17" d="M1041.9,724.2c0,0-31.1-13.1-21.2-38.3c0,0,4.1-6.8,4.5-7.4c0,0-30.9-20.8-37.2-22.3c0,0-15.6,13.2-24.8,23
		c0,0-30.6,54.4-36.5,66c-5.9,11.6,70.1,28.4,70.1,28.4s16.6-30.3,20.5-32.7C1021.3,738.5,1040.2,728.3,1041.9,724.2z"/>
	<path class="st17" d="M1025.2,678.5c0,0,15.8-20.9,35-17.7c0,0-2.2-3.6-3.7-4.6c0,0-22.5-0.6-36.5,18.9
		C1006,694.7,1025.2,678.5,1025.2,678.5z"/>
	<path class="st17" d="M988,656.2c0,0,16.1-16.6,28.6-21.2c0,0,2.7-0.8,5.5,0c0,0-25.3,17-27.3,24.8
		C992.8,667.7,988,656.2,988,656.2z"/>
	<path class="st13" d="M1024,635.2l5.7-2.3c0,0,14.5,3.3,22.8,14.9l-0.7,3.5C1051.8,651.3,1029.7,646.5,1024,635.2z"/>
	<path class="st14" d="M1046.1,719.6c-1.2,1.6-2.1,2.8-2.7,3.3c-0.4,0.4-0.9,0.8-1.5,1.2c0,0,0,0,0,0l-0.5-21.8c0,0,2.7,8.4,3.1,9.6
		C1044.9,713.3,1046.1,719.6,1046.1,719.6z"/>
	<path class="st18" d="M954.1,803.5c0,0-1.5,4-3.6,9.6c-4.8-5.6-15.9-26.6-15.9-26.6c0.7,0.5,3,2.7,3.6,3.2
		C938.7,790.1,954.1,803.5,954.1,803.5z"/>
	<g>
		<path class="st12" d="M1072.1,579.1c0,0,22.4,4,22.6,23c0.2,19-17.2,46.5-28.5,44.5c-11.3-2-24.1-12.1-23.7-23.6
			c0.4-11.6,3.6-26.7,8.8-35.1C1056.6,579.6,1065.9,578.7,1072.1,579.1z"/>
	</g>
	<g>
		<path class="st19" d="M1043.4,614.2c0,0,0,3.9,7.8,6.9c7.7,3.1,21.9-1.2,25.4-0.5c3.6,0.7,4.6-1,4.6-1l0.3,3.8l3,2.1
			c0,0,2.1-10.1,8.5-11c6.3-0.9,11.6-29.8-15.7-35.3c0,0-20.2-5.5-25.4,4.8C1046.5,594.2,1042.4,607,1043.4,614.2z"/>
	</g>
	<g>
		<path class="st12" d="M1077.6,618.9c0.5-1.6-0.7-7.9-4.7-4.4c-4,3.6-4,11.6-1.7,12.3C1073.4,627.5,1076.3,623.1,1077.6,618.9z"/>
	</g>
	<g>
		<path class="st19" d="M1062.6,583.6c0,0-19.5-13.8-19.6,33.3L1062.6,583.6z"/>
	</g>
</g>
<g>
	<g>
		<path class="st12" d="M158,728.6c0,0,2.4,8.6,2.7,10c0.3,1.3-1,4.9-2.9,8.9c-1.9,4-6.2,8.5-7,8.6c-0.8,0.1-1.5,0.6-3.2-0.3
			c-1.7-0.9-2.7-2.6-2.7-2.6s-2.7-0.1-3.7-2.3c0,0-2.5-0.2-3.3-2.9c0,0-2.4-0.2-2.8-2.2c0,0,1.3-3.6,1.4-5.1
			c0.1-1.5,4.1-8.3,8.3-14.8C144.7,725.9,148.4,718.2,158,728.6z"/>
	</g>
	
		<rect x="354.7" y="513.3" transform="matrix(0.9876 -0.157 0.157 0.9876 -76.5693 63.0383)" class="st20" width="12.1" height="5.7"/>
	
		<rect x="356.2" y="515.4" transform="matrix(0.9876 -0.1571 0.1571 0.9876 -76.9221 63.1462)" class="st20" width="9.6" height="5.7"/>
	<path class="st21" d="M368.7,498.7L368.7,498.7c0.6-1.7,0.7-3.6,0.4-5.5c-1-6.5-7.2-11-13.7-9.9c-6.5,1-11,7.2-9.9,13.7
		c0.4,2.4,1.5,4.5,3,6.2c1.6,2.1,5.1,6.9,5.8,11.1l6-0.9l6-0.9c-0.7-4.2,1.1-9.9,2-12.4C368.4,499.6,368.6,499.2,368.7,498.7
		L368.7,498.7z"/>
	<path class="st22" d="M351.8,487c0,0-6,4-3.1,12.3c0,0,1.1,2.5,2.8,2.2c1.7-0.3,1.2-1.7,1.2-1.7c-2.9-8.3,2.9-12.1,2.9-12.1
		s2-1.2,0.2-2.3C354.6,484.7,351.8,487,351.8,487z"/>
	<g>
		<path class="st23" d="M109.9,849.2c-1.2-2.6-29.3-64.1-9.7-94.1c7-10.8,19.2-16.1,36.4-15.9c3.7,0.1,9.1,0.7,16,1.5
			c18.1,2.1,45.5,5.3,69.2,1c28.3-5,43.7-18.9,47.1-42.4c5.9-40.1,30.5-52.7,54.3-64.9c15.6-8,31.8-16.3,42.2-32.4
			c10.7-16.6,13.6-33.8,8.5-51.1c-3.8-13-10.9-21.2-11-21.3l2.3-2c0.3,0.3,29.6,34.5,2.8,76.1c-10.9,16.9-27.4,25.3-43.4,33.5
			c-24.2,12.4-47,24-52.7,62.6c-8.4,57-83.6,48.2-119.7,44c-6.8-0.8-12.2-1.4-15.7-1.5c-16-0.2-27.3,4.6-33.7,14.4
			c-18.6,28.6,9.7,90.5,10,91.1L109.9,849.2z"/>
	</g>
	<g>
		<path class="st24" d="M151.3,739.4c0,0-2.8-3.5-3.1-4.9c-0.3-1.4-9.8,2.3-9.8,2.3S146.9,742.7,151.3,739.4z"/>
	</g>
	<g>
		<path class="st12" d="M153.5,724.2c0,0,1.4,4,3.1,6.2c1.7,2.3-14.8,2.5-14.8,2.5s1.5-6.6,2.7-11.6
			C145.6,717.3,153.5,724.2,153.5,724.2z"/>
	</g>
	<g>
		<path class="st25" d="M151.3,755.1c0,0,4.5-10.2,3-11.1c-1.6-0.9-2.7-0.3-2.7-0.3l0-5c0,0-1.9-3.3-5-0.3c0,0-1.5-3.3-4.1,0
			c0,0-1.9-1.7-3.4-0.4c-1.5,1.3-4.1,8-4.1,8s-0.1,1.9,2.7,2.5c0,0,0.6,2.7,3.3,2.9c0,0,0.8,2,3.7,2.3c0,0,2.3,4,6.1,2.6
			C150.8,756.1,151.2,755.5,151.3,755.1z"/>
	</g>
	<g>
		<path class="st12" d="M160.6,738.9c0,0-6,4.8-10.4,6c-1,0.3-2,0.4-2.6-0.5c-0.6-0.8-0.2-2.8,2.2-5c2.5-2.2,4.7-6.2,4.7-6.2
			S157.7,731.7,160.6,738.9z"/>
	</g>
	<path class="st26" d="M216.6,614.9c0,0,13.7-17.2-5.2-24.9c-10.4-4.2-22,4.9-35.5,33.5c0,0-17,27.1-18.5,33.5
		c-4.1,17-15.2,62.4-14.6,70l16.3,4.1c0,0,11.6-34.7,15.1-50.1c2.9-12.7,5.9-18.4,5.9-18.4L216.6,614.9z"/>
	<g>
		<g>
			<g>
				<g>
					<g>
						<path class="st12" d="M373.7,535.9c0,0-1.4,1.9-2.4,2.4c0,0-1.8,0.7-3.1,1.3c-0.4,0.2-0.8,0.4-1,0.5c-0.9,0.6-2.7,2.2-5.2,3
							c-2.5,0.7-13.9,0.8-13.9,0.8l-1.6-7.1l-2.3-6.4c0,0,11.2-13,13.5-14c0.2-0.1,0.4-0.2,0.7-0.2c2-0.6,3.7-0.2,4.7-0.4
							c0.4-0.1,4.3-0.5,5.1,0.5c1.1,1.3,1.4,2.8,1.2,4.1c0,0,2.1,2.7,2.2,5.2c0,0,2,2.5,1.3,5.6
							C372.8,531.3,374.5,534.1,373.7,535.9z"/>
					</g>
				</g>
			</g>
		</g>
	</g>
	<path class="st27" d="M240.5,971.6c0,0,13-1.7,13.4-2c0.5-0.4,3.5-5.2,5.5-4.2c1.9,1,1.6,7.2,3.4,8.3c1.9,1.2,16.5,12.5,18.3,14.5
		c1.8,2,13.4,1.6,14.5,5c1.1,3.4,0.7,11.1-16.4,8.2c-17.2-2.9-37-1.3-40.6-3.6C235,995.4,239,976.5,240.5,971.6z"/>
	<path class="st27" d="M154.5,968.5c0,0,13-1.4,13.5-1.7c0.5-0.4,3.7-5.2,5.6-4.1c1.9,1.1,1.4,7.2,3.2,8.4
		c1.8,1.2,16.2,12.8,17.9,14.9c1.7,2,13.4,1.9,14.4,5.3c1,3.4,0.5,11.1-16.6,7.8c-17.1-3.3-37-2.2-40.5-4.6
		C148.4,992.2,152.9,973.4,154.5,968.5z"/>
	<g>
		<path class="st12" d="M236.6,573.4c-0.1,0.2-0.2,0.5-0.3,0.7c-0.5,1.5-0.9,2.9-1.3,4.3c-2,7.9-2,14.7-2,14.7
			c1.2,4.7-19-14.4-19-14.4s1.1-15.7-0.5-33.2C212,528,236.6,573.4,236.6,573.4z"/>
	</g>
	<g>
		<path class="st17" d="M245.1,669c-0.5,2-1,4-1.5,6.2c-0.2,1-0.5,2-0.7,3.1c-2.9,15.2-1.4,37.2,1,61.9c0,0-10.7,3.4-67.7,12.5
			C174,678.9,188,610,188,610c2.5-16.2,12.4-22,25.6-32c0,0,2.6,0.1,20.6,13c1.3,0.9,7.1,12.5,10.7,25.5
			C251.3,639.4,249.7,651.3,245.1,669z"/>
	</g>
	<path class="st26" d="M229.3,648.4c-1.2,2.1-2.6,4-4.1,5.8c-4.3,5-9.6,8.6-14.3,9.9c-2.4,0.7-4.7,0.7-6.5,0
		c-0.2-0.1-0.3-0.1-0.5-0.2c-9-4.6-16.8-58.5-0.2-68c0,0,7.9-4,15.7-0.8c6.5,2.7,11.5,12.9,13.5,28c0.2,1.7,0.4,3.5,0.6,5.4
		c0.1,1.1,0.2,2.2,0.2,3.3C233.9,637.8,232.1,643.5,229.3,648.4z"/>
	<g>
		<path class="st12" d="M248.5,529.4c0,0,6.8,10.2,4.1,12.1c-2.2,1.6,3.9,11.6,4.7,13.3c0.8,1.7-4,3.4-5,4.6
			c-0.9,1.2-2.8,15.1-6.8,15.9c-4,0.8-23-3.9-28.5-8.6c-5.5-4.7-11.8-27.9-9.4-38.1C210,518.3,236.5,511.6,248.5,529.4z"/>
	</g>
	<g>
		<path class="st28" d="M249.9,531.5c0,0,1.1-5.2-10.5-12.8c-11.5-7.6-26.1,2.6-28.3,3.3c-2.2,0.8-11.7,11.6-6.3,24.4
			c9,21.3,9.7,20.6,9.7,20.6s0.1-12.8,4-14.1c4.3-1.4,11-3.6,11-3.6s-4.7-9.7,1.1-11.6C236.3,535.7,243.7,529.8,249.9,531.5z"/>
	</g>
	<path class="st12" d="M227,550.2c-0.4-1.1-2.2-6.3-6.3-5.1c-4,1.2-2,7.5,1.5,11C225.8,559.6,229.3,556.6,227,550.2z"/>
	<path class="st20" d="M251.3,531.3c0,0-12.6-31.6-38.8-17.1c-30.5,16.9-3.4,42-3.4,42S216.5,541.9,251.3,531.3z"/>
	<polygon class="st17" points="213.6,578 214,575.4 234.5,587.5 234.2,591 	"/>
	<polygon class="st29" points="240,965.3 240.5,971.6 257.6,969.9 257.3,960.5 	"/>
	<g>
		<path class="st17" d="M222.8,766.7c0,0-3.2,22.4-6.7,45.3c-0.7,4.7-1.4,9.4-2.2,14c-0.1,0.5-0.2,1-0.2,1.5
			c-0.6,4-1.3,7.9-1.9,11.6c-1.8,11.1-3.3,19.5-4,21.4C205.3,867,179.1,968,179.1,968s-27.7,5.1-28.5,2.4c0,0,24.3-116.2,24.1-119.9
			c-0.2-3.8,1.3-110,1.3-110S221.7,760.6,222.8,766.7z"/>
	</g>
	<g>
		<path class="st17" d="M243.2,732c0,0,12.3,104.8,13.6,112.9c1.2,8.1,9.7,128.8,9.7,128.8s-12.8,7.2-29.5,2.6
			c0,0-15.6-127.7-17.3-131.6c-6.6-15.4-22.4-91.9-25.3-102.4c-2.9-10.5-17.6-20.5-17.6-20.5S206.5,708.6,243.2,732z"/>
	</g>
	<path class="st26" d="M215.5,592.3c0,0-25.5,3.4-15.8,23.6c9.5,19.8,26.5,7.5,79.5-5.4c0,0,16-5,24.4-12.1
		c13.4-11.4,46-48.2,50.4-51.5l-9.8-17c0,0-20.5,20.1-32.3,28.2c-11.8,8.1-29.3,23.9-29.3,23.9L215.5,592.3z"/>
	<g>
		<path class="st23" d="M115.8,834.5c-13.6,0-24.2-19.7-24.2-44.9c0-25.2,10.6-44.9,24.2-44.9s24.2,19.7,24.2,44.9
			C140,814.7,129.4,834.5,115.8,834.5z M115.8,747.7c-11.6,0-21.1,18.8-21.1,41.8c0,23.1,9.5,41.8,21.1,41.8
			c11.6,0,21.1-18.8,21.1-41.8C136.9,766.5,127.4,747.7,115.8,747.7z"/>
	</g>
	<polygon class="st30" points="115.2,846.7 107.3,849.8 108.5,852.7 109.3,852.3 110.7,855.7 112.4,855 111.1,851.6 113.7,850.6 
		115,854 116.8,853.3 115.5,849.9 116.3,849.5 	"/>
	<path class="st20" d="M247.3,532.6l25.1-7.5c0,0,1.3-5.6-24.3,2.2C222.6,535.1,247.3,532.6,247.3,532.6z"/>
	<path class="st14" d="M233.3,628.6c-10.2,1-19.6-2.4-19.6-2.4c7.4,0.2,18.8-3,19-3C233,624.9,233.2,626.7,233.3,628.6z"/>
	<path class="st31" d="M213.9,826c-0.1,0.5-0.2,1-0.2,1.5c-0.6,4-1.3,7.9-1.9,11.6c-8.3-31.7-9.7-62.6-9.7-62.6
		C203,786.7,213.8,825.7,213.9,826z"/>
	<path class="st32" d="M236.4,574.1c-0.5,1.5-0.9,2.9-1.3,4.3c-9.2-3-14-9.3-14-9.3C228.4,572.3,236.4,574.1,236.4,574.1z"/>
</g>
<rect x="296" class="st33" width="232.1" height="409.2"/>
<rect x="525.5" class="st33" width="232.1" height="561.9"/>
<g>
	<g>
		<g>
			<g>
				<g>
					<g>
						<g>
							<polygon class="st4" points="549.2,1014.3 556.8,1015 624.5,329.2 616.9,328.5 							"/>
						</g>
					</g>
				</g>
			</g>
		</g>
	</g>
	<g>
		<g>
			<g>
				<g>
					<g>
						<g>
							<polygon class="st4" points="426.6,1002.4 434.1,1003.1 501.9,317.3 494.3,316.6 							"/>
						</g>
					</g>
				</g>
			</g>
		</g>
	</g>
	<g>
		<g>
			<g>
				<g>
					<g>
						<g>
							<g>
								
									<rect x="554.2" y="275.4" transform="matrix(9.659903e-02 -0.9953 0.9953 9.659903e-02 168.6385 859.8831)" class="st4" width="7.6" height="123.2"/>
							</g>
						</g>
					</g>
				</g>
			</g>
		</g>
		<g>
			<g>
				<g>
					<g>
						<g>
							<g>
								
									<rect x="548.7" y="332.5" transform="matrix(9.659974e-02 -0.9953 0.9953 9.659974e-02 106.8835 905.888)" class="st4" width="7.6" height="123.2"/>
							</g>
						</g>
					</g>
				</g>
			</g>
		</g>
		<g>
			<g>
				<g>
					<g>
						<g>
							<g>
								
									<rect x="543.1" y="389.5" transform="matrix(9.659976e-02 -0.9953 0.9953 9.659976e-02 45.1303 951.8937)" class="st4" width="7.6" height="123.2"/>
							</g>
						</g>
					</g>
				</g>
			</g>
		</g>
		<g>
			<g>
				<g>
					<g>
						<g>
							<g>
								
									<rect x="537.6" y="446.5" transform="matrix(9.659250e-02 -0.9953 0.9953 9.659250e-02 -16.6213 997.9029)" class="st4" width="7.6" height="123.2"/>
							</g>
						</g>
					</g>
				</g>
			</g>
		</g>
		<g>
			<g>
				<g>
					<g>
						<g>
							<g>
								
									<rect x="532.1" y="503.5" transform="matrix(9.659173e-02 -0.9953 0.9953 9.659173e-02 -78.3742 1043.9084)" class="st4" width="7.6" height="123.2"/>
							</g>
						</g>
					</g>
				</g>
			</g>
		</g>
		<g>
			<g>
				<g>
					<g>
						<g>
							<g>
								
									<rect x="526.5" y="560.5" transform="matrix(9.659976e-02 -0.9953 0.9953 9.659976e-02 -140.1325 1089.9094)" class="st4" width="7.6" height="123.2"/>
							</g>
						</g>
					</g>
				</g>
			</g>
		</g>
		<g>
			<g>
				<g>
					<g>
						<g>
							<g>
								
									<rect x="521" y="617.6" transform="matrix(9.659258e-02 -0.9953 0.9953 9.659258e-02 -201.8834 1135.9198)" class="st4" width="7.6" height="123.2"/>
							</g>
						</g>
					</g>
				</g>
			</g>
		</g>
		<g>
			<g>
				<g>
					<g>
						<g>
							<g>
								
									<rect x="515.5" y="674.6" transform="matrix(9.659903e-02 -0.9953 0.9953 9.659903e-02 -263.6403 1181.92)" class="st4" width="7.6" height="123.2"/>
							</g>
						</g>
					</g>
				</g>
			</g>
		</g>
		<g>
			<g>
				<g>
					<g>
						<g>
							<g>
								
									<rect x="509.9" y="731.6" transform="matrix(9.659252e-02 -0.9953 0.9953 9.659252e-02 -325.3923 1227.931)" class="st4" width="7.6" height="123.2"/>
							</g>
						</g>
					</g>
				</g>
			</g>
		</g>
	</g>
	<g>
		<g>
			<g>
				<g>
					<g>
						<g>
							<g>
								
									<rect x="495.5" y="845.7" transform="matrix(9.659252e-02 -0.9953 0.9953 9.659252e-02 -451.9059 1316.6312)" class="st4" width="7.6" height="123.2"/>
							</g>
						</g>
					</g>
				</g>
			</g>
		</g>
		<g>
			<g>
				<g>
					<g>
						<g>
							<g>
								
									<rect x="490" y="902.7" transform="matrix(9.659260e-02 -0.9953 0.9953 9.659260e-02 -513.66 1362.6366)" class="st4" width="7.6" height="123.2"/>
							</g>
						</g>
					</g>
				</g>
			</g>
		</g>
	</g>
	<g>
		<g>
			<g>
				<g>
					<g>
						<g>
							<g>
								
									<rect x="504.4" y="788.6" transform="matrix(9.659252e-02 -0.9953 0.9953 9.659252e-02 -387.1456 1273.9362)" class="st4" width="7.6" height="123.2"/>
							</g>
						</g>
					</g>
				</g>
			</g>
		</g>
		<g>
			<g>
				<g>
					<g>
						<g>
							<g>
								
									<rect x="498.9" y="845.7" transform="matrix(9.659174e-02 -0.9953 0.9953 9.659174e-02 -448.8998 1319.9431)" class="st4" width="7.6" height="123.2"/>
							</g>
						</g>
					</g>
				</g>
			</g>
		</g>
	</g>
</g>
</svg>
