<?xml version="1.0" encoding="utf-8"?>
<!-- Generator: Adobe Illustrator 24.0.0, SVG Export Plug-In . SVG Version: 6.00 Build 0)  -->
<svg version="1.1" id="Objects" xmlns="http://www.w3.org/2000/svg" xmlns:xlink="http://www.w3.org/1999/xlink" x="0px" y="0px"
	 viewBox="0 0 357.4 307.4" style="enable-background:new 0 0 357.4 307.4;" xml:space="preserve">
<style type="text/css">
	.st0{opacity:0.7;fill:#9FC6FF;}
	.st1{fill:#FFFFFF;}
	.st2{fill:#D4E9FF;}
	.st3{display:none;fill:#407BFF;}
	.st4{opacity:0.3;fill:#14365B;}
	.st5{fill:#0053CC;}
	.st6{fill:#407BFF;}
	.st7{fill:#DCE9FF;}
	.st8{fill:#FF8B7B;}
	.st9{fill:#0F264C;}
	.st10{fill:#FF5652;}
	.st11{fill:#14365B;}
	.st12{fill:#EA7063;}
	.st13{fill:#236AE8;}
	.st14{fill:#004DAA;}
	.st15{fill:#9FC6FF;}
</style>
<g>
	<g>
		<g>
			<polygon class="st0" points="153,14.1 51.9,1.8 60.1,290.1 147.7,299.9 			"/>
			<polygon class="st0" points="254.8,3.5 153,14.1 147.7,299.9 235.9,292.5 			"/>
			<polygon class="st0" points="355.5,15.9 254.8,3.5 235.9,292.5 323.2,302.3 			"/>
			<path class="st1" d="M140.8,200.6c0-6.9-5.7-12.5-12.7-12.2c-5.9,0.3-10.8,4.9-11.5,10.7c-0.5,4.3,1.3,8.2,4.3,10.7
				c1.7,1.4,3.2,3.1,4.4,4.9l1.9,2.8l2.3-2.4c1.5-1.6,3.2-3,5.1-4.1C138.4,209.1,140.8,205.1,140.8,200.6z"/>
			<path class="st1" d="M326,48.3c0-6.9-5.7-12.5-12.7-12.2c-5.9,0.3-10.8,4.9-11.5,10.7c-0.5,4.3,1.3,8.2,4.3,10.7
				c1.7,1.4,3.2,3.1,4.4,4.9l1.9,2.8l2.3-2.4c1.5-1.6,3.2-3,5.1-4.1C323.5,56.7,326,52.8,326,48.3z"/>
			<path class="st2" d="M152.5,12.5l103-10.8l101.9,12.5l-32.6,289.9l-88.4-10l-89.2,7.6l-88.6-9.9L50.2,0L152.5,12.5z M165,260
				l72.9-51.2l0.3-0.2l15.9-8.8l-13.7-10.5l-93-33.4l-18.4-10.6l-27.1,63.9l49.9,42.1L165,260z M91.2,200.2l25.8-61.8l-50.1-29
				l1.6,71.7L91.2,200.2z M152.7,28.1l-1.5-0.2L64.9,17.4l1.7,75.8l56,32.7l22.4-38L173.1,26l-19,2L152.7,28.1z M189.8,24.2
				l-32.8,70.9l-22.5,37.7l18.1,10.5l94.3,34l19.9,15.3l23.6-13.1L278.6,20.4L255,17.5L189.8,24.2z M293.2,22.2l10.1,150.4
				l24.4-13.5l13.9-130.9L293.2,22.2z M236.7,282.1l1.3,0.1l75.6,8.6L325.9,175L245,219.5l-68.8,47.9l26.6,17.6l-0.1,0.1l32.7-2.8
				L236.7,282.1z M146.9,289.8l36.5-3.1L144.2,261l-75.4-63.1l1.8,83.3L146.9,289.8z"/>
			<path class="st3" d="M266.2,202c-0.2,0-0.4-0.1-0.6-0.2l-22.4-17.2l-93.5-34.1c-0.1,0-0.1,0-0.2-0.1l-23.4-13.9l-26,62.4
				c-0.2,0.5-0.8,0.7-1.3,0.5c-0.5-0.2-0.7-0.8-0.5-1.3l26.5-63.4c0.1-0.3,0.3-0.5,0.6-0.6c0.3-0.1,0.6-0.1,0.8,0.1l24.3,14.4
				l93.6,34.1c0.1,0,0.2,0.1,0.3,0.1l22.1,16.9l30.8-17l-9.7-127.1c0-0.5,0.4-1,0.9-1.1c0.5,0,1,0.4,1.1,0.9l9.8,127.7
				c0,0.4-0.2,0.8-0.5,0.9l-31.9,17.6C266.5,202,266.3,202,266.2,202z"/>
			<path class="st3" d="M291.4,56c-0.1,1.7-1.6,2.9-3.3,2.8s-2.9-1.6-2.8-3.3c0.1-1.7,1.6-2.9,3.3-2.8
				C290.3,52.8,291.5,54.3,291.4,56z"/>
			<path class="st3" d="M102.1,198.8c-0.1,1.7-1.6,2.9-3.3,2.8c-1.7-0.1-2.9-1.6-2.8-3.3c0.1-1.7,1.6-2.9,3.3-2.8
				C101.1,195.6,102.3,197.1,102.1,198.8z"/>
		</g>
		<polygon class="st4" points="255.5,1.7 152.5,12.5 147.2,301.7 236.4,294.2 		"/>
	</g>
	<g>
		<g>
			<path class="st5" d="M76.9,90.9l-6.3-8.7c-0.4-0.6-0.2-1.4,0.4-1.7l23-12c0.7-0.4,1.6-0.1,2,0.5l6.3,8.7c0.4,0.6,0.2,1.4-0.4,1.7
				l-23,12C78.2,91.7,77.3,91.5,76.9,90.9z"/>
			<path class="st6" d="M76.1,89.9l-6.3-8.7c-0.4-0.6-0.2-1.4,0.4-1.7l23-12c0.7-0.4,1.6-0.1,2,0.5l6.3,8.7c0.4,0.6,0.2,1.4-0.4,1.7
				l-23,12C77.4,90.7,76.5,90.5,76.1,89.9z"/>
			<polygon class="st7" points="100.3,78.7 90,84.1 89,84.6 84.4,87 83.4,87.6 79.7,89.5 71.8,78.6 72.7,78.1 73.7,77.6 82.6,72.9 
				85.4,71.5 92.4,67.8 95,71.4 95.7,72.3 99.2,77.3 99.8,78 			"/>
			<path class="st1" d="M99.8,78l-0.6-0.8l-7.7,3.5l-2.7,1.9l-0.9-1.1l-2-5.7l-2.6-1.7l0.9-1.7l11.6-0.1L95,71.4l-9.6,0.1l-2.8,1.5
				L80.5,77l-3.7,3.6l-3.1-3.1l-1,0.5l5.4,5.3l5.3,4.1l1-0.5l-0.7-0.6l4.8-2.5l0.5,0.7l1-0.5l-0.6-0.7l2.8-1.9L99.8,78z M82.8,85.8
				l-3.9-3.1l-1.4-1.4l3.9-3.9l1.2-2.4l2.2,1.3l2,5.7l0,0l1,1.1L82.8,85.8z"/>
			<path class="st8" d="M19.1,72.3c-0.2,0.3-0.4,0.7-0.6,1.2l-0.6,1.3c-0.4,0.9-0.8,1.7-1.1,2.6c-0.7,1.8-1.4,3.6-2,5.4
				c-1.2,3.7-2.1,7.4-2.7,11.2c-0.2,0.9-0.3,1.9-0.4,2.9c0,0.1,0,0.3-0.1,0.5c0,0.1,0,0.2,0,0.3c0,0.1,0,0.2,0,0.3
				c0.1,0.2,0.2,0.3,0.4,0.4c0.4,0.3,1.1,0.5,1.9,0.7c1.6,0.3,3.5,0.4,5.4,0.4c1.9,0,3.9-0.1,5.8-0.3l1.1,4.1
				c-1.1,0.4-2.1,0.7-3.1,1c-1,0.3-2.1,0.6-3.2,0.8c-2.2,0.4-4.4,0.7-6.9,0.6c-1.2-0.1-2.6-0.3-4-0.8c-0.7-0.3-1.5-0.7-2.2-1.2
				c-0.7-0.6-1.4-1.3-1.9-2.2c-0.5-0.9-0.8-1.9-0.9-2.8c-0.1-0.5-0.1-0.9-0.1-1.3l0-0.6l0-0.4C4,95.1,4,94,4.2,93
				c0.4-4.3,1.3-8.6,2.5-12.8c0.6-2.1,1.3-4.1,2.1-6.2c0.4-1,0.8-2,1.3-3c0.2-0.5,0.5-1,0.7-1.5c0.3-0.5,0.5-1,0.9-1.6L19.1,72.3z"
				/>
			<path class="st8" d="M24.5,98.8l6.2-5.8l0.5,8.5c0,0-4.6,2.8-7.6,1.1L24.5,98.8z"/>
			<polygon class="st8" points="37.7,92.4 37.7,99.5 31.1,101.5 30.7,93 			"/>
			<path class="st5" d="M14,299.3c-0.8,0-1.6-0.2-2.2-0.3c-0.1,0-0.1-0.1-0.1-0.2c0-0.1,0-0.2,0.1-0.2c0.3-0.2,2.8-1.8,3.8-1.4
				c0.2,0.1,0.3,0.2,0.4,0.6c0.1,0.4,0,0.8-0.3,1.1C15.3,299.2,14.7,299.3,14,299.3z M12.4,298.7c1.5,0.3,2.6,0.2,3-0.1
				c0.2-0.2,0.2-0.4,0.2-0.7c0-0.2-0.1-0.2-0.2-0.3C14.9,297.4,13.4,298.1,12.4,298.7z"/>
			<path class="st5" d="M11.9,299c0,0-0.1,0-0.1,0c-0.1,0-0.1-0.1-0.1-0.2c0-0.1,0-2.5,0.9-3.3c0.2-0.2,0.5-0.3,0.8-0.3
				c0.5,0.1,0.6,0.4,0.7,0.6C14.3,296.7,12.8,298.5,11.9,299C11.9,299,11.9,299,11.9,299z M13.3,295.6c-0.2,0-0.3,0.1-0.4,0.2
				c-0.5,0.5-0.7,1.8-0.8,2.6c0.8-0.6,1.7-2,1.6-2.6C13.7,295.8,13.6,295.7,13.3,295.6C13.3,295.6,13.3,295.6,13.3,295.6z"/>
			<path class="st5" d="M52.1,299.3c-0.9,0-1.9-0.2-2.6-0.3c-0.1,0-0.1-0.1-0.2-0.2c0-0.1,0-0.2,0.1-0.2c0.4-0.2,3.7-1.9,4.7-1.3
				c0.2,0.1,0.3,0.3,0.3,0.5c0,0.4-0.1,0.7-0.4,1C53.7,299.2,53,299.3,52.1,299.3z M50.2,298.7c1.9,0.3,3.2,0.2,3.7-0.2
				c0.2-0.2,0.3-0.4,0.2-0.6c0-0.1,0-0.2-0.1-0.2C53.4,297.3,51.5,298.1,50.2,298.7z"/>
			<path class="st5" d="M49.5,299c0,0-0.1,0-0.1,0c-0.1,0-0.1-0.1-0.1-0.2c0-0.1,0.2-2.4,1.3-3.2c0.3-0.3,0.7-0.4,1.1-0.3
				c0.5,0.1,0.7,0.3,0.7,0.6C52.6,296.7,50.6,298.5,49.5,299C49.6,299,49.6,299,49.5,299z M51.5,295.6c-0.3,0-0.5,0.1-0.7,0.3
				c-0.7,0.6-1,1.9-1.1,2.6c1-0.6,2.4-2,2.3-2.6c0,0,0-0.2-0.4-0.2C51.6,295.6,51.6,295.6,51.5,295.6z"/>
			<path class="st8" d="M29.7,39.2c1,5,3.2,15-0.3,18.4c0,0,1.4,5,10.6,5c10.2,0,4.9-5,4.9-5c-5.5-1.3-5.4-5.4-4.4-9.3L29.7,39.2z"
				/>
			<path class="st9" d="M49.1,27.6c-0.1,0-0.2,0-0.2-0.1c-0.2-0.1-0.2-0.4-0.1-0.5c1.2-1.8,3-1.8,3.1-1.8c0.2,0,0.4,0.2,0.4,0.4
				c0,0.2-0.2,0.4-0.4,0.4c-0.1,0-1.5,0-2.5,1.5C49.4,27.6,49.3,27.6,49.1,27.6z"/>
			<path class="st10" d="M51.6,32.3c0,0,1.1,2.9,2.4,4.3c-0.9,0.8-2.4,0.5-2.4,0.5V32.3z"/>
			<path class="st9" d="M50.9,31.2c0,0.7,0.4,1.2,0.8,1.2c0.4,0,0.8-0.5,0.8-1.2s-0.4-1.2-0.8-1.2C51.3,29.9,50.9,30.5,50.9,31.2z"
				/>
			<path class="st9" d="M51.6,30l1.6-0.5C53.2,29.5,52.3,30.8,51.6,30z"/>
			<polygon class="st8" points="40.3,298.8 48.7,298.8 49.3,279.4 40.9,279.4 			"/>
			<polygon class="st8" points="2.3,298.8 10.6,298.8 13.3,279.4 5,279.4 			"/>
			<path class="st11" d="M11.2,297.8H1.8c-0.3,0-0.6,0.2-0.7,0.6L0,305.9c-0.1,0.8,0.6,1.5,1.3,1.5c3.3-0.1,4.9-0.2,9-0.2
				c2.5,0,6.3,0.3,9.8,0.3c3.4,0,3.7-3.5,2.2-3.8c-6.6-1.4-7.6-3.4-9.8-5.2C12.2,298,11.7,297.8,11.2,297.8z"/>
			<path class="st11" d="M49,297.8h-9.4c-0.3,0-0.6,0.2-0.7,0.6l-1.1,7.4c-0.1,0.8,0.6,1.5,1.3,1.5c3.3-0.1,4.9-0.2,9-0.2
				c2.5,0,7.8,0.3,11.3,0.3c3.4,0,3.7-3.5,2.2-3.8c-6.6-1.4-9.1-3.4-11.4-5.2C50,298,49.5,297.8,49,297.8z"/>
			<g>
				<polygon class="st12" points="49.3,279.4 49,289.4 40.6,289.4 40.9,279.4 				"/>
				<polygon class="st12" points="5,279.4 13.3,279.4 11.9,289.4 3.6,289.4 				"/>
			</g>
			<path class="st6" d="M59,59.7c0,0,4,1.4-4,50.6c-13.5,0-27.5,0-34,0c0.6-13.8,0.6-22.4-6-50.8c0,0,7.1-1.6,14.4-1.9
				c5.7-0.3,10.4-0.5,15.4,0C51.5,58.2,59,59.7,59,59.7z"/>
			<polygon class="st13" points="52.2,81.3 58,87.8 58.7,75 			"/>
			<path class="st8" d="M77.9,88.4c-1.3,1.8-2.6,3.5-4,5.2c-1.4,1.7-2.8,3.3-4.2,4.6c-0.2,0.2-0.4,0.3-0.6,0.5l-0.3-0.9
				c-0.3-1-0.6-2-0.9-3.1c-1.2-4.2-2.3-8.5-3.3-12.9l-3-13.1l-8.4,1.7c0.9,4.5,1.9,8.9,3.1,13.4c0.6,2.2,1.2,4.4,1.8,6.6
				c0.7,2.2,1.3,4.4,2.1,6.6c0.4,1.1,0.8,2.2,1.2,3.3l0.7,1.7c0.1,0.2,0.3,0.7,0.5,1.1c0.2,0.4,0.5,0.9,0.9,1.3
				c0.4,0.5,0.9,1,1.6,1.4c0.7,0.4,1.5,0.7,2.3,0.8c1.7,0.2,2.9-0.4,3.7-0.8c1.7-1,2.6-2,3.5-3c1.7-2,2.9-4.1,4.1-6.2
				c0.6-1,1.1-2.1,1.6-3.2c0.5-1.1,0.9-2.1,1.4-3.3L77.9,88.4z"/>
			<path class="st6" d="M59,59.7c3.5,0.9,5.9,15.1,5.9,15.1l-13.3,9.1c0,0-5.3-16.9-2.7-20.7C51.7,59.2,54,58.4,59,59.7z"/>
			<path class="st8" d="M79.8,91.6l7.5-2.7l-4.8-4c0,0-5.7,0.7-5.8,5.3L79.8,91.6z"/>
			<polygon class="st8" points="91.4,86.3 92.4,84.3 82.4,85 87.3,88.9 			"/>
			<polygon class="st8" points="85.4,84.8 84.4,83.7 85.7,80.9 83.9,81 79,86.3 			"/>
			<path class="st8" d="M28.2,28.8c0.5,8.3,0.5,11.8,4.7,16.1c6.3,6.4,16.4,4,18.4-4.3c1.8-7.5,0.6-19.8-7.5-23.1
				C35.9,14.3,27.7,20.5,28.2,28.8z"/>
			<path class="st5" d="M46,110.3c0,0-0.8,9.9-2.2,23.9c0,0,0,0,0,0c-1.6,17-4,40-6.6,58.2c-0.4,2.7-0.8,5.3-1.1,7.8
				C32,226.3,14,287.5,14,287.5H2.5c0,0,9.4-59.1,11.5-85c5.2-65.5-3.9-77.1,7-92.3H46z"/>
			<path class="st14" d="M43.8,134.1C43.8,134.1,43.8,134.1,43.8,134.1c-1.6,17-4,40-6.6,58.2c-2.5-7.7-7.1-34.8-3.1-58.6
				C36.6,119.4,41.3,125.7,43.8,134.1z"/>
			<path class="st5" d="M55,110.3c0,0,6.6,64.5,6.1,90.1c-0.6,26.6-10.3,87.2-10.3,87.2H39.4c0,0,1.8-59,0.8-85.1
				c-1.1-28.4-10.1-92.1-10.1-92.1H55z"/>
			<polygon class="st6" points="15.3,288.1 1.2,288.1 1,283.2 16.4,282.8 			"/>
			<polygon class="st6" points="52.2,288.1 38.1,288.1 37.6,282.8 53.3,282.8 			"/>
			<path class="st6" d="M15,59.5C11.5,60.2,6.8,73,6.8,73l14.7,8.5c0,0,4.3-10,2.6-14.4C22.4,62.6,19.1,58.6,15,59.5z"/>
			<path class="st9" d="M35.3,14.1c-11.6-0.9-15.7,7.5-13.8,17.5c2.2,11-1.6,15.9-6,19.9c-3.4,3.2-4.6,9-1.8,16.7
				c2.3,6.3-0.6,9.9,0.1,15.2c0.7,5.7,10.2,8.1,15.5,2.5c5.1-5.4,3.9-9.1,8.4-10.8C45,72.5,51.6,68,49.9,59.8
				c-1.1-5.3-7.7-8.9-5.7-15.8C46.4,36.3,55.3,15.6,35.3,14.1z"/>
			<path class="st9" d="M26.6,16.3l19.7,14.8c0.2-2.5,2.8-6.7,4.6-9.2C53.7,18,38.4,2.9,26.6,16.3z"/>
			<path class="st8" d="M43.7,32.2c0,1.7,0.7,3.3,1.6,4.4c1.4,1.6,3,0.7,3.3-1.2c0.3-1.7,0.1-4.6-1.7-5.5
				C45.2,28.9,43.7,30.3,43.7,32.2z"/>
			<path class="st9" d="M20.5,108.3l-1.5,3c-0.1,0.2,0.2,0.5,0.6,0.5h35.7c0.3,0,0.6-0.2,0.6-0.3l0.3-3c0-0.2-0.2-0.4-0.6-0.4H21
				C20.8,108,20.5,108.1,20.5,108.3z"/>
			<path class="st15" d="M25.1,112.1h-0.9c-0.2,0-0.3-0.1-0.3-0.2l0.4-4c0-0.1,0.2-0.2,0.4-0.2h0.9c0.2,0,0.3,0.1,0.3,0.2l-0.4,4
				C25.4,112,25.3,112.1,25.1,112.1z"/>
			<path class="st15" d="M47.5,112.1h-0.9c-0.2,0-0.3-0.1-0.3-0.2l0.4-4c0-0.1,0.2-0.2,0.4-0.2h0.9c0.2,0,0.3,0.1,0.3,0.2l-0.4,4
				C47.8,112,47.6,112.1,47.5,112.1z"/>
		</g>
		<g>
			<path class="st1" d="M98.7,47.1c-0.6-7-6.9-12.1-13.9-11.2c-5.9,0.8-10.5,5.9-10.7,11.8c-0.1,4.4,2,8.2,5.3,10.4
				c1.8,1.3,3.5,2.9,4.9,4.6l2.1,2.6l2.2-2.6c1.4-1.7,3-3.3,4.8-4.6C96.9,55.8,99.1,51.6,98.7,47.1z"/>
			<path class="st9" d="M87.2,57c-2.8,0.2-5.4-0.9-7.2-2.8c0,0,0,0,0,0c-0.4-0.5-0.8-1-1.2-1.5c-0.7-1.1-1.1-2.4-1.2-3.8
				c-0.4-4.9,3.2-9.2,8.2-9.6c3.6-0.3,6.9,1.6,8.5,4.6c0.1,0.2,0.2,0.3,0.2,0.5c0.5,1,0.8,2,0.8,3.1C95.7,52.3,92.1,56.6,87.2,57z"
				/>
			<path class="st6" d="M87.2,57c-2.8,0.2-5.4-0.9-7.2-2.8c0,0,0,0,0,0c-0.2-0.3-0.4-0.6-0.6-0.9c-0.4-0.9-0.7-2-0.8-3.1
				c-0.4-4.9,3.2-9.2,8.2-9.6c3-0.2,5.8,1,7.6,3.2c0.1,0.2,0.2,0.3,0.2,0.5c0.5,1,0.8,2,0.8,3.1C95.7,52.3,92.1,56.6,87.2,57z"/>
		</g>
	</g>
</g>
</svg>
