<?xml version="1.0" encoding="utf-8"?>
<!-- Generator: Adobe Illustrator 24.0.0, SVG Export Plug-In . SVG Version: 6.00 Build 0)  -->
<svg version="1.1" id="_x3C_Layer_x3E_" xmlns="http://www.w3.org/2000/svg" xmlns:xlink="http://www.w3.org/1999/xlink" x="0px"
	 y="0px" viewBox="0 0 998.7 1210.7" style="enable-background:new 0 0 998.7 1210.7;" xml:space="preserve">
<style type="text/css">
	.st0{fill:#C6C3B2;}
	.st1{fill:#6D6865;}
	.st2{fill:#FFFFFF;}
	.st3{fill:#F5DD71;}
	.st4{fill:#D2B844;}
	.st5{fill:#C7C7C7;}
	.st6{fill:#DBA585;}
	.st7{fill:#C99A7D;}
	.st8{fill:#B74242;}
	.st9{fill:#DEDFE6;}
	.st10{fill:#DCA787;}
	.st11{fill:#454971;}
	.st12{fill:#2E3048;}
	.st13{fill:#DCD0C8;}
	.st14{fill:url(#SVGID_1_);}
	.st15{fill:url(#SVGID_2_);}
	.st16{fill:url(#SVGID_3_);}
	.st17{fill:url(#SVGID_4_);}
	.st18{fill:url(#SVGID_5_);}
	.st19{fill:url(#SVGID_6_);}
	.st20{fill:url(#SVGID_7_);}
	.st21{fill:url(#SVGID_8_);}
	.st22{filter:url(#Adobe_OpacityMaskFilter);}
	.st23{filter:url(#Adobe_OpacityMaskFilter_1_);}
	.st24{mask:url(#SVGID_9_);fill:url(#SVGID_10_);}
	.st25{fill:url(#SVGID_11_);}
</style>
<g>
	<g>
		<path class="st0" d="M840.2,737.8L219.3,741c-22,0.1-39.9-17.6-40-39.6L177,257.3c-0.1-22,17.6-39.9,39.6-40l620.9-3.2
			c22-0.1,39.9,17.6,40,39.6l2.3,444.1C879.9,719.8,862.2,737.7,840.2,737.8z"/>
		
			<rect x="454.3" y="209.7" transform="matrix(1 -5.155169e-03 5.155169e-03 1 -1.1604 2.7271)" class="st1" width="148.1" height="33.5"/>
		
			<rect x="218.1" y="384.8" transform="matrix(1 -5.168106e-03 5.168106e-03 1 -2.241 1.3886)" class="st2" width="99" height="99"/>
		<rect x="154.5" y="196.1" transform="matrix(0.9675 0.253 -0.253 0.9675 68.7827 -43.6122)" class="st3" width="99" height="99"/>
		
			<rect x="307" y="164.5" transform="matrix(0.9104 -0.4138 0.4138 0.9104 -56.6004 166.7151)" class="st3" width="99" height="99"/>
		
			<rect x="211.4" y="52.7" transform="matrix(0.8243 -0.5661 0.5661 0.8243 -12.0447 165.6945)" class="st3" width="99" height="99"/>
		
			<rect x="431.1" y="383.2" transform="matrix(1 -5.138667e-03 5.138667e-03 1 -2.2173 2.4755)" class="st2" width="99" height="99"/>
		
			<rect x="537.7" y="382.7" transform="matrix(1 -5.173156e-03 5.173156e-03 1 -2.2279 3.0433)" class="st3" width="99" height="99"/>
		
			<rect x="537.1" y="276.6" transform="matrix(1 -5.138556e-03 5.138556e-03 1 -1.668 3.0187)" class="st2" width="99" height="99"/>
		
			<rect x="325.1" y="490.3" transform="matrix(1 -5.137610e-03 5.137610e-03 1 -2.7684 1.9319)" class="st2" width="99" height="99"/>
		
			<rect x="432.2" y="596.3" transform="matrix(1 -5.138667e-03 5.138667e-03 1 -3.3123 2.484)" class="st3" width="99" height="99"/>
		
			<rect x="218.6" y="491.1" transform="matrix(1 -5.138822e-03 5.138822e-03 1 -2.7745 1.3849)" class="st2" width="99" height="99"/>
		<g>
			<path class="st3" d="M529.3,276.9c0,0,0.2,45.8-10.4,84.7l-22.8,14.4l-80.7,0.4c15.1-40.9,14.9-99.1,14.9-99.1L529.3,276.9z"/>
			<polygon class="st4" points="496.1,376.1 496.1,361.4 519,361.3 			"/>
		</g>
		<g>
			<g>
				<path class="st2" d="M317.9,597.2c0,0,0.2,45.8-10.4,84.7l-22.8,14.4l-80.7,0.4c15.1-40.9,14.9-99.1,14.9-99.1L317.9,597.2z"/>
				<polygon class="st5" points="284.7,696.3 284.6,681.7 307.5,681.6 				"/>
			</g>
		</g>
		<g>
			<path class="st3" d="M423.3,384c0,0,0.2,45.8-10.4,84.7l-22.8,14.4l-80.7,0.4c15.1-40.9,14.9-99.1,14.9-99.1L423.3,384z"/>
			<polygon class="st4" points="390.1,483.2 390.1,468.5 413,468.4 			"/>
		</g>
		<g>
			<path class="st2" d="M637,489c0,0,0.2,45.8-10.4,84.7l-22.8,14.4l-80.7,0.4c15.1-40.9,14.9-99.1,14.9-99.1L637,489z"/>
			<polygon class="st5" points="603.8,588.1 603.7,573.5 626.6,573.4 			"/>
		</g>
		
			<rect x="644.1" y="382.2" transform="matrix(1 -5.138672e-03 5.138672e-03 1 -2.2093 3.5701)" class="st2" width="99" height="99"/>
		
			<rect x="644.1" y="488.2" transform="matrix(1 -5.138672e-03 5.138672e-03 1 -2.7539 3.5715)" class="st3" width="99" height="99"/>
		
			<rect x="750.7" y="381.7" transform="matrix(1 -5.173005e-03 5.173005e-03 1 -2.2197 4.1451)" class="st3" width="99" height="99"/>
		
			<rect x="365.9" y="20.1" transform="matrix(0.7825 -0.6226 0.6226 0.7825 47.0331 273.7762)" class="st3" width="99" height="99"/>
		
			<rect x="750.1" y="275.6" transform="matrix(1 -5.173257e-03 5.173257e-03 1 -1.6711 4.1411)" class="st2" width="99" height="99"/>
		<rect x="52.8" y="44.5" transform="matrix(0.9675 0.253 -0.253 0.9675 27.103 -22.8359)" class="st3" width="99" height="99"/>
		<g>
			<path class="st3" d="M742.3,275.9c0,0,0.2,45.8-10.4,84.7l-22.8,14.4l-80.7,0.4c15.1-40.9,14.9-99.1,14.9-99.1L742.3,275.9z"/>
			<polygon class="st4" points="709.1,375.1 709.1,360.4 732,360.3 			"/>
		</g>
		<g>
			<g>
				<g>
					<g>
						<path class="st6" d="M28.9,782.4c0,0,3.1,5,3.5,9.1c0.3,3.3,3,8.1,4.2,10.8c1.2,2.7,5,14.8,5.1,18c0.1,1.3-2.8,9.4-2.4,12
							c0.4,2.6,1.9,7.8-0.4,8.1c-2.3,0.3-5-3.9-5-3.9s0.2,2.4-1.8,3.3c-3.9,1.8-5.9,0.2-5.9,0.2s-1.4,2.6-3.2,3
							c-3.9,0.8-5.9-0.8-5.9-0.8s-1.7,1.5-4.4,1.4c-3.5-0.1-4.9-3.1-4.9-3.1s-4.4,0.9-5.7-1.2c-1.3-2.1-1.1-4.2-1.6-6.1
							c-0.5-1.9-0.1-18.7,5.6-30.8c5.7-12.1-1.5-23.9-1.5-23.9L28.9,782.4z"/>
					</g>
				</g>
			</g>
			<g>
				<g>
					<path class="st7" d="M34.5,835c0,0,0.4-15.1-3.6-18.3c-4-3.2-4.4,2.2-4.4,2.2s0.5-5.4-3.8-6.1c-4.3-0.7-4.5,5.7-4.5,5.7
						s-0.7-4.1-5.3-3.3c-4.6,0.9-3.5,6.1-3.5,6.1s-4.4-5.2-7.2-0.2c-4.8,8.4-0.4,18.4-0.4,18.4s1.5,2.4,5.9,1.3c0,0,3,5.9,9.5,1.7
						c0,0,6.7,3.7,9.1-2.2C26.3,840.4,34.1,843.5,34.5,835z"/>
				</g>
			</g>
			<path class="st8" d="M80,565.2c0,0-25.8,86-34.5,117.7c-2.7,10-9.4,105-10.5,108.8c-1.2,3.8-33.9,9.1-33.9,9.1S5,682,5.4,675.5
				c0.4-6.5,36.1-139.2,46.5-144c7.8-3.5,11.9-0.6,21.7,6.7C87.4,548.4,80,565.2,80,565.2z"/>
			<g>
				
					<rect x="327.4" y="425" transform="matrix(0.8367 -0.5476 0.5476 0.8367 -174.9302 268.4077)" class="st9" width="70.6" height="5.2"/>
			</g>
			<path class="st10" d="M400,428.3c0,0-0.6,3.3-1.5,4.7c0,0-1.9,2.3-3.2,4c-0.4,0.6-0.7,1-0.9,1.4c-0.8,1.4-2.1,4.7-4.9,7.6
				c-2.8,2.9-13.8,11.9-13.8,11.9l-9.4-8l-9.7-4.4c0,0,5.5-23.7,7.8-26.7c0.2-0.3,0.5-0.6,0.7-0.8c2.2-2.3,4.8-3.1,6.1-4.2
				c0.5-0.4,5.5-4,7.3-3.5c2.5,0.6,3.9,2.1,4.5,3.8c0,0,4.8,1.5,6.7,4.3c0,0,4.5,1.2,5.8,5.4C395.4,423.7,399.8,425.5,400,428.3z"/>
			<g>
				<g>
					<path class="st11" d="M59.1,1152.5c0,0-2.4,16.3-2.6,18.8c-0.3,2.5-26.2-1.4-26.2-1.4l-2.1-19.4
						C28.2,1150.4,55.8,1150.2,59.1,1152.5z"/>
				</g>
			</g>
			<g>
				<g>
					<path class="st12" d="M56.7,1169.2c0,0,8.2,9.8,16.1,14.1c7.9,4.3,20.4,6,25.1,10.4c3.4,3.2,12.3,17-20.6,16.7
						c-32.9-0.3-48.8,2-52.3-3.3c-3.5-5.3,5.1-39,5.1-39S37.9,1170.9,56.7,1169.2z"/>
				</g>
			</g>
			<g>
				<g>
					<path class="st11" d="M244.5,1152.5c0,0-2.4,16.3-2.6,18.8s-26.2-1.4-26.2-1.4l-2.1-19.4
						C213.6,1150.4,241.3,1150.2,244.5,1152.5z"/>
				</g>
			</g>
			<g>
				<g>
					<path class="st12" d="M242.1,1169.2c0,0,8.2,9.8,16.1,14.1c7.9,4.3,37.1,7.8,41.8,12.3c3.4,3.2,9,16.1-37.3,14.9
						c-32.9-0.9-48.8,2-52.3-3.3c-3.5-5.3,5.1-39,5.1-39S222.8,1171.1,242.1,1169.2z"/>
				</g>
			</g>
			<g>
				<g>
					<path class="st12" d="M80.5,732.9c0,0-24.3,38.6-22.5,73.6c1.8,34.9-8.8,73-12.5,109.5c-4.1,40.7-20.7,136.9-21.3,158.7
						c-0.6,21.8,2.6,91.2,2.6,91.2l33.4,0.8c0,0,28-168.3,35.3-185.5c7.3-17.2,43.2-139.6,44.4-153.3
						C141.1,814.1,80.5,732.9,80.5,732.9z"/>
				</g>
			</g>
			<g>
				<g>
					<path class="st12" d="M208.5,738.2c0,0,18.3,95.7,20.7,117.1c2.4,21.4,4,103.4,5.2,116.8c1.2,13.4,11.3,174.4,14.5,194.6h-42.6
						c0,0-32.7-117.4-32.7-172.9c0-55.5-25.3-120.7-41.6-157.4c-16.3-36.6-53.7-37.5-63.7-105.5C68.3,731,194.9,716.6,208.5,738.2z"
						/>
				</g>
			</g>
			<g>
				<g>
					<path class="st6" d="M121.1,408.1c0,0,32.6-12.2,47.7,12.7c15,24.8,13.6,74.6-2.9,80.7c-16.4,6.1-41.2,2.9-49.6-12.6
						c-8.4-15.5-16-38-15.7-53C101,420.8,112.5,412.5,121.1,408.1z"/>
				</g>
			</g>
			<g>
				<g>
					<path class="st6" d="M162.4,502.6c0,0-1.4,8.8,0.9,13.2c2.2,4.3-42.3,4.5-42.3,4.5s-3.6-23.6-10.5-43.6
						C103.7,456.7,162.4,502.6,162.4,502.6z"/>
				</g>
			</g>
			<g>
				<g>
					<path class="st12" d="M110.5,476.7c0,0,3.1,5.1,15.6,3.1c12.5-2,27.8-18.7,33.1-20.5c5.2-1.8,5.3-4.9,5.3-4.9l3.3,4.8l5.6,0.4
						c0,0-5.1-14.9,2.6-21c7.7-6.1-7.9-48.3-48.2-34.3c0,0-30.9,8.5-29.8,26.1C99.1,447.9,103.6,467.9,110.5,476.7z"/>
				</g>
			</g>
			<g>
				<g>
					<path class="st13" d="M165.9,515.3c0,0-0.1-8.3-3.9-9.1c-3.8-0.8-41.5-4.4-46.1-2.6v9.7C115.9,513.2,124.8,518.7,165.9,515.3z"
						/>
				</g>
			</g>
			<g>
				<g>
					<path class="st6" d="M163.7,448c-0.7-2.9-8.2-11.4-11.1-2.4c-2.9,9,4.3,21.2,8.4,20.1C165,464.7,165.5,455.5,163.7,448z"/>
				</g>
			</g>
			<g>
				<g>
					<path class="st8" d="M228.3,527.8c-25.9-3.4-62.4-12.6-62.4-12.6l-50-2c0,0-45.9,10.1-64,18.3c-1.7,0.8-1.7,40.9-6.4,51.5
						l15,31.6c0,0,8.7,62.6,10.5,90.5C71.8,717.9,53.1,825,53.1,825s20,5.9,54.1,9.7c34.1,3.8,119.4-1.4,119.9-5.4
						c0.5-4-16.5-150.1-17.3-157.7c-1.2-11.6,4-73.3,4-73.3c7.9-6.1,77.1-38.2,95.9-55c5-4.5,26.4-25.2,32.4-32.4
						c21.5-25.4,39.1-47.2,41.2-51.8c2.4-2.7-24.1-17.1-26.5-17.8c-2-0.7-30.3,37.3-41.4,49.4c-5,5.4-25.7,20.4-25.7,20.4
						S244.5,528.8,228.3,527.8z"/>
				</g>
			</g>
			<g>
				<g>
					<path class="st12" d="M111.8,411.1c0,0-41.6,3.3-1.3,65.6L111.8,411.1z"/>
				</g>
			</g>
			<polygon class="st9" points="393.7,410.4 397.1,405.2 390.8,406.1 			"/>
		</g>
	</g>
	<g>
		<rect x="619" y="179.1" class="st0" width="203" height="7.3"/>
	</g>
	<g>
		<g>
			<linearGradient id="SVGID_1_" gradientUnits="userSpaceOnUse" x1="715.5704" y1="918.6792" x2="947.8837" y2="918.6792">
				<stop  offset="0" style="stop-color:#4D759D"/>
				<stop  offset="1" style="stop-color:#769A42"/>
			</linearGradient>
			<path class="st14" d="M718.7,1098.8c-12.3-56.1,14.2-70.1,39.9-83.6c21-11.1,40.7-21.5,39.7-54.5c-1.4-43.8,28.4-59.7,54.8-73.8
				c19.6-10.5,38.1-20.3,40.8-40.3c6.6-48,50.9-107.6,51.3-108.1l2.8,2.1c-0.4,0.6-44.1,59.5-50.7,106.6
				c-3,21.7-22.2,31.9-42.6,42.8c-26.7,14.2-54.3,29-52.9,70.7c1.1,35.2-20.6,46.6-41.5,57.7c-25.6,13.5-49.8,26.3-38.1,79.8
				L718.7,1098.8z"/>
		</g>
		<g>
			<linearGradient id="SVGID_2_" gradientUnits="userSpaceOnUse" x1="695.3876" y1="884.8107" x2="998.7062" y2="884.8107">
				<stop  offset="0" style="stop-color:#4D759D"/>
				<stop  offset="1" style="stop-color:#769A42"/>
			</linearGradient>
			<path class="st15" d="M732.1,1084.6c-0.6,0-1.2,0-1.8-0.1c-11.1-0.8-22-9.2-34.2-26.5l-0.8-1.1l0.9-1
				c0.2-0.2,19.8-24.2,12.6-69.1c-1.7-10.5-3.9-18.5-5.7-24.9c-2.6-9.4-4.4-15.6-1.5-20.6c3.7-6.3,13.7-9.6,41.9-16.3
				c30-7.1,40.1-41,48.9-70.8c8.3-28.1,16.2-54.6,39.6-53.8c21.5,0.8,54.1-32.8,82.8-62.4c26.7-27.5,51.9-53.4,68-52.9
				c3.9,0.1,7.1,1.8,9.7,4.8c14.4,17.1,1,43-12,68.1c-11,21.4-21.5,41.6-14.8,54.9c8.4,16.7,9.6,31.9,3.4,43.8
				c-7.3,14.1-24.5,23.2-50.9,27c-24.2,3.5-26.8,29.8-29.5,57.7c-3.2,32.5-6.9,69.4-47.4,72.9c-30.1,2.6-50.4,23.7-68.3,42.4
				C758.8,1071.7,746.4,1084.6,732.1,1084.6z M699.7,1057c11.2,15.5,21.3,23.3,30.9,24c13.5,1,25.8-11.8,40-26.6
				c18.3-19.1,39.1-40.7,70.5-43.4c37.7-3.3,41.1-37.1,44.3-69.9c2.9-29.3,5.6-56.9,32.5-60.8c25.3-3.7,41.5-12.1,48.3-25.2
				c5.7-10.9,4.5-25-3.4-40.7c-7.5-14.9,3.3-35.9,14.8-58.1c12.4-24.1,25.3-49,12.4-64.3c-1.9-2.3-4.3-3.5-7.2-3.6
				c-14.6-0.5-39.2,24.9-65.4,51.9c-30.3,31.2-61.6,63.5-84.5,63.5c-0.3,0-0.6,0-0.9,0c-20.7-0.8-27.9,23.4-36.2,51.3
				c-9.1,30.7-19.5,65.6-51.4,73.2c-25.5,6.1-36.6,9.5-39.7,14.7c-2.2,3.7-0.7,9,1.8,17.9c1.8,6.5,4.1,14.6,5.8,25.3
				C719,1028,703.6,1051.8,699.7,1057z"/>
		</g>
		<g>
			<linearGradient id="SVGID_3_" gradientUnits="userSpaceOnUse" x1="625.7018" y1="838.9215" x2="821.3498" y2="838.9215">
				<stop  offset="0" style="stop-color:#4D759D"/>
				<stop  offset="1" style="stop-color:#769A42"/>
			</linearGradient>
			<path class="st16" d="M733.4,1072.8c-0.4,0-0.8,0-1.2-0.1c-18.2-1.7-32.2-41.5-45.7-80c-6.4-18.3-12.5-35.5-18.4-46.6
				c-4.6-8.6-10.4-17.6-16-26.2c-15-23.1-30.5-46.9-25.4-67.9c2.7-11,10.6-20.2,24.2-28c29.8-17.2,25.2-26.9,15.2-48.1
				c-7.4-15.6-17.5-37-17.9-70.6c-0.2-14.4-0.5-26.9-0.8-37.9c-0.9-35.4-1.4-53.2,6.1-59.6c3.1-2.7,7.5-3.3,13.8-2.2
				c10.7,2,15.4,10.7,20.3,19.9c6.3,11.7,13.4,25,34.8,29.4c20.1,4.2,39.5,9.9,44.8,23.3c3.8,9.4,0.2,21.8-10.9,37.8
				c-2.7,3.9-3.6,7.2-2.8,10.1c1.8,6.5,11.8,11.1,23.4,16.5c16.5,7.7,37.1,17.3,42.9,37.1c4.7,16-0.7,36-16.6,61
				c-37.5,59.3-36,99.5-34.7,134.9c1,26.3,1.9,51.1-13.9,78.8C747.5,1066.8,740.6,1072.8,733.4,1072.8z M661.9,608.5
				c-2.7,0-4.7,0.6-6.2,1.9c-6.3,5.4-5.8,23.7-4.9,56.9c0.3,11,0.6,23.5,0.8,38c0.4,32.9,10.3,53.8,17.5,69.1
				c10,21.1,16,33.8-16.6,52.6c-12.8,7.4-20.1,15.8-22.6,25.9c-4.7,19.5,10.4,42.7,25,65.2c5.7,8.7,11.5,17.7,16.2,26.5
				c6,11.3,12.1,28.7,18.6,47.1c12.5,35.8,26.8,76.3,42.8,77.7c6.1,0.5,12.5-5,19.1-16.4c15.4-26.9,14.5-50.1,13.5-77
				c-1.3-36-2.9-76.7,35.2-136.9c15.3-24.2,20.6-43.2,16.2-58.2c-5.4-18.4-24.3-27.2-41-35C763,740,752.3,735,750.2,727
				c-1.1-3.9,0-8.2,3.3-12.9c10.4-15,13.8-26.3,10.5-34.6c-4.8-11.9-24.1-17.4-42.3-21.2c-23-4.8-30.8-19.4-37.1-31.2
				c-4.7-8.8-8.8-16.4-17.9-18.1C664.9,608.6,663.3,608.5,661.9,608.5z"/>
		</g>
		<g>
			<linearGradient id="SVGID_4_" gradientUnits="userSpaceOnUse" x1="680.0816" y1="881.23" x2="739.4023" y2="881.23">
				<stop  offset="0" style="stop-color:#4D759D"/>
				<stop  offset="1" style="stop-color:#769A42"/>
			</linearGradient>
			<path class="st17" d="M733.7,1094.1l-3.3-1c18.3-57.9-14.8-187.9-24.7-219.6c-4.9-15.6-0.4-39,4-61.6
				c5.6-29.2,11.4-59.5-3.4-70.8c-27.8-21.3-26.3-70.6-26.2-72.6l3.4,0.1c0,0.5-1.5,49.6,24.9,69.8c16.5,12.6,10.5,43.9,4.7,74.2
				c-4.3,22.2-8.7,45.2-4.1,60C721.3,911.6,752,1036.3,733.7,1094.1z"/>
		</g>
		<linearGradient id="SVGID_5_" gradientUnits="userSpaceOnUse" x1="545.8244" y1="892.9836" x2="737.3286" y2="892.9836">
			<stop  offset="0" style="stop-color:#4D759D"/>
			<stop  offset="1" style="stop-color:#769A42"/>
		</linearGradient>
		<path class="st18" d="M595.1,717.8c-7.6-19.4-37.4-16.4-34.7,11c2.7,27.4,21.9,56.6-7.3,103.2c-29.2,46.6,37.4,55.7,61.2,84.9
			c23.7,29.2,32,69.4,52,95c20.1,25.6,33.8,86.7,50.2,63.9c16.4-22.8,1-52.5,2.8-93.6c1.8-41.1,38.4-67.1,1.8-93.6
			c-36.6-26.5-73.3-34.6-61.3-94.3C665.2,767.8,618.8,778,595.1,717.8z"/>
		<g>
			<path class="st2" d="M743.1,1080.9c-0.2-1.2-20.5-121.6-66-154.5c-46.4-33.6-54.8-64.7-71-138l3.3-0.7
				c16,72.4,24.3,103,69.6,135.9c46.6,33.8,66.5,151.8,67.3,156.8L743.1,1080.9z"/>
		</g>
		<linearGradient id="SVGID_6_" gradientUnits="userSpaceOnUse" x1="674.0499" y1="1326.8839" x2="835.1724" y2="700.2977">
			<stop  offset="0" style="stop-color:#4D759D"/>
			<stop  offset="1" style="stop-color:#769A42"/>
		</linearGradient>
		<path class="st19" d="M702.1,1076.6c0,0,13.5-33.4-11.1-80.9c-24.6-47.5-44.5-40.2,14.8-76.7c59.3-36.5,0.4-151.6,50.8-166.2
			c50.4-14.6,94.3-200.8,132.6-177.1c38.4,23.7-12.8,115,14.6,142.4c27.4,27.4,31,62.3-25.6,90.5c-56.6,28.2,40.2,136-36.5,168.8
			C765.1,1010.3,787.1,1139.2,702.1,1076.6z"/>
		<g>
			<path class="st2" d="M725.5,1112.1c-0.1-0.4-8.3-43.2,17.7-98.5c26.5-56.3,39.3-117.8,34-164.6c-2.9-25.3,13.4-35.3,29.1-44.8
				c15.5-9.4,31.4-19.2,30.6-44.2c-0.8-22.6,8.8-75.4,9.2-77.7l3.4,0.6c-0.1,0.5-9.9,54.8-9.1,76.9c1,27-15.9,37.3-32.2,47.2
				c-15.5,9.4-30.1,18.4-27.5,41.5c5.3,47.4-7.5,109.6-34.3,166.5c-25.5,54.2-17.6,95.9-17.5,96.3L725.5,1112.1z"/>
		</g>
		<path class="st2" d="M787.5,876c17.2-16,40-18.3,35.3,5.4c-4.7,23.7-21,30.5-12.9,45.4c8.1,14.9,21.7,29.8-1.4,48.1
			c-23.1,18.3-35.9,20.3-42.7,54.9c-6.8,34.6-5.4,58.2-35.3,59.7c-29.8,1.5-18.3-42-8.8-61.7c0,0,14.2-22.4,4.8-51.9
			c-9.5-29.5-27.8-45.4,10.8-55.4C776,910.6,775.9,886.8,787.5,876z"/>
		<g>
			<linearGradient id="SVGID_7_" gradientUnits="userSpaceOnUse" x1="732.6155" y1="1002.0767" x2="803.413" y2="1002.0767">
				<stop  offset="0" style="stop-color:#4D759D"/>
				<stop  offset="1" style="stop-color:#769A42"/>
			</linearGradient>
			<path class="st20" d="M732.7,1111.8c-0.1-4.2-2.1-103.8,16.5-120.6c19-17.1,22.7-47.4,23.2-63.9c0.6-21.5,28.4-34.3,29.6-34.8
				l1.4,3.1c-0.3,0.1-27,12.4-27.6,31.8c-0.6,20.8-5.3,49.3-24.3,66.4c-17.5,15.7-15.4,117-15.3,118L732.7,1111.8z"/>
		</g>
		<linearGradient id="SVGID_8_" gradientUnits="userSpaceOnUse" x1="671.8251" y1="1129.7207" x2="802.7079" y2="1129.7207">
			<stop  offset="0" style="stop-color:#BECEDB"/>
			<stop  offset="1" style="stop-color:#F3F1FD"/>
		</linearGradient>
		<polygon class="st21" points="802.7,1071.1 771.8,1188.3 702.7,1188.3 671.8,1071.1 		"/>
		<defs>
			<filter id="Adobe_OpacityMaskFilter" filterUnits="userSpaceOnUse" x="671.8" y="1071.1" width="130.9" height="117.3">
				<feFlood  style="flood-color:white;flood-opacity:1" result="back"/>
				<feBlend  in="SourceGraphic" in2="back" mode="normal"/>
			</filter>
		</defs>
		<mask maskUnits="userSpaceOnUse" x="671.8" y="1071.1" width="130.9" height="117.3" id="SVGID_9_">
			<g class="st22">
				<defs>
					<filter id="Adobe_OpacityMaskFilter_1_" filterUnits="userSpaceOnUse" x="671.8" y="1071.1" width="130.9" height="117.3">
						<feFlood  style="flood-color:white;flood-opacity:1" result="back"/>
						<feBlend  in="SourceGraphic" in2="back" mode="normal"/>
					</filter>
				</defs>
				<mask maskUnits="userSpaceOnUse" x="671.8" y="1071.1" width="130.9" height="117.3" id="SVGID_9_">
					<g class="st23">
					</g>
				</mask>
				<linearGradient id="SVGID_10_" gradientUnits="userSpaceOnUse" x1="671.8251" y1="1129.7207" x2="802.7079" y2="1129.7207">
					<stop  offset="0" style="stop-color:#FFFFFF"/>
					<stop  offset="0.9948" style="stop-color:#000000"/>
				</linearGradient>
				<path class="st24" d="M802.7,1071.1c0,0-68,12.8-68,117.3h-31.9l-30.9-117.3H802.7z"/>
			</g>
		</mask>
		<linearGradient id="SVGID_11_" gradientUnits="userSpaceOnUse" x1="671.8251" y1="1129.7207" x2="802.7079" y2="1129.7207">
			<stop  offset="0" style="stop-color:#9D9EAA"/>
			<stop  offset="0.9948" style="stop-color:#7AB3FB"/>
		</linearGradient>
		<path class="st25" d="M802.7,1071.1c0,0-68,12.8-68,117.3h-31.9l-30.9-117.3H802.7z"/>
	</g>
	<g>
		<rect x="919.5" y="256.8" class="st0" width="7.3" height="219.9"/>
	</g>
	<g>
		<rect x="270.2" y="777.9" class="st0" width="181.6" height="7.3"/>
	</g>
</g>
</svg>
