<?xml version="1.0" encoding="utf-8"?>
<!-- Generator: Adobe Illustrator 24.0.0, SVG Export Plug-In . SVG Version: 6.00 Build 0)  -->
<svg version="1.1" id="Layer_1" xmlns="http://www.w3.org/2000/svg" xmlns:xlink="http://www.w3.org/1999/xlink" x="0px" y="0px"
	 viewBox="0 0 570.2 168.6" style="enable-background:new 0 0 570.2 168.6;" xml:space="preserve">
<style type="text/css">
	.st0{fill:#152049;}
	.st1{fill:#17D3FF;}
	.st2{fill:#2F8CEA;}
</style>
<rect x="175.1" y="135.3" class="st0" width="33.3" height="33.3"/>
<polygon class="st1" points="175.1,0 117.5,57.6 141.4,81.5 175.1,47.7 "/>
<polygon class="st2" points="33.8,33.8 0,0 0,47.7 33.8,81.5 "/>
<rect x="225.3" y="40.7" transform="matrix(0.7071 -0.7071 0.7071 0.7071 30.1753 188.0979)" class="st2" width="33.8" height="33.8"/>
<g>
	<path class="st2" d="M321.8,22.5V7.3l-0.1,0l-1.7,4.2l-3,6.8h-1.8l-3-6.9l-1.7-4.1l-0.1,0v15.2h-2.6V0.7h2.6l3.6,8.3L316,14h0.1
		l2.1-5.1l3.5-8.2h2.6v21.9H321.8z"/>
	<path class="st2" d="M328.3,22.5V0.7h2.6v16.6l0.1,0l3.3-6.5l5.2-10.1h2.5v21.9h-2.6V5.9h-0.1l-3,6.1l-5.4,10.6H328.3z"/>
	<path class="st2" d="M355.9,22.5v-10h-7.4v10H346V0.7h2.6v9.6h7.4V0.7h2.6v21.9H355.9z"/>
	<path class="st2" d="M362.6,22.5V0.7h2.6v16.6l0.1,0l3.3-6.5l5.2-10.1h2.5v21.9h-2.6V5.9h-0.1l-3,6.1l-5.4,10.6H362.6z"/>
	<path class="st2" d="M392.3,18.5c-0.4,1.4-1.1,2.4-2.2,3.2c-1.1,0.7-2.4,1.1-3.9,1.1c-1,0-1.9-0.2-2.7-0.5c-0.8-0.3-1.5-0.8-2-1.4
		c-0.5-0.6-1-1.3-1.3-2.1c-0.3-0.8-0.4-1.7-0.4-2.6V7c0-0.9,0.1-1.8,0.4-2.6c0.3-0.8,0.7-1.5,1.2-2.1c0.5-0.6,1.2-1,2-1.4
		s1.7-0.5,2.7-0.5c1.5,0,2.8,0.4,3.8,1.1c1.1,0.7,1.8,1.8,2.2,3.1l-2.5,1c-0.2-0.8-0.6-1.4-1.2-1.9C388,3.3,387.2,3,386.2,3
		c-0.6,0-1.1,0.1-1.6,0.3c-0.5,0.2-0.9,0.5-1.2,0.9c-0.3,0.4-0.6,0.8-0.7,1.3c-0.2,0.5-0.3,1-0.3,1.5v9.3c0,0.5,0.1,1,0.3,1.5
		c0.2,0.5,0.4,0.9,0.7,1.3c0.3,0.4,0.7,0.7,1.2,0.9c0.5,0.2,1,0.3,1.6,0.3c0.9,0,1.7-0.2,2.3-0.7c0.6-0.5,1-1.1,1.2-1.9L392.3,18.5z
		"/>
	<path class="st2" d="M400.6,3v19.5H398V3h-5V0.7h12.6V3H400.6z"/>
	<path class="st2" d="M407.7,22.5V0.7h11.6v2.4h-9v7.2h7.7v2.4h-7.7V20h9v2.5H407.7z"/>
	<path class="st2" d="M434.6,7.2c0,0.8-0.1,1.6-0.3,2.4c-0.2,0.8-0.6,1.5-1.1,2.1c-0.5,0.6-1.1,1.1-1.9,1.4
		c-0.8,0.4-1.8,0.5-2.9,0.5h-3.7v8.8H422V0.7h6.2c2,0,3.6,0.5,4.7,1.6C434,3.4,434.6,5,434.6,7.2z M431.9,7.2c0-1.3-0.3-2.2-0.9-3
		c-0.6-0.7-1.6-1.1-2.9-1.1h-3.5v8.2h3.6c0.7,0,1.3-0.1,1.8-0.3c0.5-0.2,0.9-0.5,1.2-0.9c0.3-0.4,0.5-0.8,0.6-1.3
		C431.9,8.2,431.9,7.7,431.9,7.2z"/>
	<path class="st2" d="M449.1,18.5c-0.4,1.4-1.1,2.4-2.2,3.2c-1.1,0.7-2.4,1.1-3.9,1.1c-1,0-1.9-0.2-2.7-0.5c-0.8-0.3-1.5-0.8-2-1.4
		c-0.5-0.6-1-1.3-1.3-2.1c-0.3-0.8-0.4-1.7-0.4-2.6V7c0-0.9,0.1-1.8,0.4-2.6c0.3-0.8,0.7-1.5,1.2-2.1c0.5-0.6,1.2-1,2-1.4
		c0.8-0.3,1.7-0.5,2.7-0.5c1.5,0,2.8,0.4,3.8,1.1c1.1,0.7,1.8,1.8,2.2,3.1l-2.5,1c-0.2-0.8-0.6-1.4-1.2-1.9
		c-0.6-0.5-1.4-0.7-2.4-0.7c-0.6,0-1.1,0.1-1.6,0.3c-0.5,0.2-0.9,0.5-1.2,0.9c-0.3,0.4-0.6,0.8-0.7,1.3c-0.2,0.5-0.3,1-0.3,1.5v9.3
		c0,0.5,0.1,1,0.3,1.5c0.2,0.5,0.4,0.9,0.7,1.3c0.3,0.4,0.7,0.7,1.2,0.9c0.5,0.2,1,0.3,1.6,0.3c0.9,0,1.7-0.2,2.3-0.7
		c0.6-0.5,1-1.1,1.2-1.9L449.1,18.5z"/>
	<path class="st2" d="M457.5,3v19.5h-2.6V3h-5V0.7h12.6V3H457.5z"/>
	<path class="st2" d="M477.1,16.3c0,2.1-0.5,3.6-1.6,4.7c-1.1,1.1-2.5,1.6-4.3,1.6h-6.7V0.7h6.3c2,0,3.5,0.5,4.5,1.6
		c1,1,1.5,2.4,1.5,4.2c0,1-0.2,1.9-0.6,2.7c-0.4,0.8-1.1,1.4-2.2,2v0.1c0.6,0.1,1,0.4,1.4,0.7c0.4,0.3,0.7,0.7,1,1.2
		c0.3,0.5,0.4,1,0.5,1.5C477.1,15.1,477.1,15.7,477.1,16.3z M467.2,3v7h3.4c1.3,0,2.2-0.3,2.7-1c0.6-0.7,0.9-1.5,0.9-2.6
		c0-1.1-0.3-1.9-0.9-2.5c-0.6-0.6-1.5-0.9-2.7-0.9H467.2z M467.2,12.3V20h3.8c0.7,0,1.3-0.1,1.7-0.3c0.5-0.2,0.8-0.5,1.1-0.8
		c0.3-0.4,0.5-0.8,0.6-1.2c0.1-0.5,0.2-1,0.2-1.5c0-1.1-0.3-2-0.8-2.7c-0.6-0.7-1.5-1.1-2.8-1.1H467.2z"/>
	<path class="st2" d="M492.6,16.2c0,1-0.2,1.9-0.5,2.7c-0.3,0.8-0.8,1.5-1.3,2.1c-0.6,0.6-1.2,1-2,1.3c-0.8,0.3-1.6,0.5-2.6,0.5
		c-1.2,0-2.1-0.2-3-0.6c-0.8-0.4-1.5-0.9-2-1.5c-0.5-0.6-0.9-1.4-1.1-2.2c-0.2-0.8-0.3-1.7-0.3-2.6V7c0-0.7,0.1-1.5,0.3-2.3
		c0.2-0.8,0.6-1.5,1.1-2.1c0.5-0.6,1.2-1.1,2-1.5c0.8-0.4,1.8-0.6,3-0.6c1.1,0,2.1,0.2,2.9,0.6c0.8,0.4,1.5,0.9,2,1.5
		c0.5,0.6,0.9,1.3,1.2,2.1c0.3,0.8,0.4,1.6,0.4,2.4V16.2z M489.9,7c0-0.3-0.1-0.7-0.2-1.2c-0.1-0.5-0.3-0.9-0.6-1.3
		c-0.3-0.4-0.7-0.8-1.2-1.1c-0.5-0.3-1.1-0.5-1.9-0.5s-1.4,0.1-1.9,0.4c-0.5,0.3-0.9,0.6-1.2,1c-0.3,0.4-0.5,0.9-0.6,1.3
		c-0.1,0.5-0.2,0.9-0.2,1.3l0,8.6c0,0.6,0.1,1.2,0.2,1.8c0.1,0.6,0.4,1,0.7,1.4c0.3,0.4,0.7,0.7,1.2,1c0.5,0.2,1.1,0.4,1.8,0.4
		c0.5,0,1-0.1,1.4-0.3c0.5-0.2,0.8-0.4,1.2-0.8c0.3-0.3,0.6-0.7,0.8-1.2c0.2-0.5,0.3-1,0.3-1.6V7z"/>
	<path class="st2" d="M319.5,60.2h-11.8V38.4h2.6v19.4h7.3V38.4h2.6v19.4h1.7v6.8h-2.4V60.2z"/>
	<path class="st2" d="M324.7,60.2V38.4h2.6v16.6l0.1,0l3.3-6.5l5.2-10.1h2.5v21.9h-2.6V43.6h-0.1l-3,6.1l-5.4,10.6H324.7z"/>
	<path class="st2" d="M348.7,58.5L348.7,58.5c-1.3-0.1-2.4-0.3-3.3-0.8c-0.9-0.4-1.6-1-2.2-1.8c-0.6-0.8-1-1.8-1.2-2.9
		c-0.2-1.2-0.4-2.5-0.4-4.1c0-2.9,0.6-5.2,1.7-6.8c1.1-1.6,2.9-2.5,5.3-2.7h0v-1.1h2.6v1.1h0.1c2.4,0.2,4.2,1.1,5.3,2.7
		c1.1,1.6,1.6,3.8,1.6,6.8c0,1.6-0.1,2.9-0.4,4.1c-0.3,1.1-0.7,2.1-1.2,2.8c-0.6,0.8-1.3,1.4-2.2,1.8c-0.9,0.4-1.9,0.7-3.2,0.9h-0.1
		v1.8h-2.6V58.5z M348.6,41.7c-1.5,0.1-2.6,0.7-3.3,1.8c-0.7,1.2-1.1,2.9-1.1,5.4c0,1.4,0.1,2.6,0.3,3.5c0.2,0.9,0.5,1.7,0.9,2.2
		c0.4,0.6,0.8,1,1.4,1.2c0.5,0.2,1.2,0.4,1.8,0.4V41.7z M351.3,56.2c0.7,0,1.3-0.2,1.9-0.4c0.6-0.2,1-0.6,1.4-1.2
		c0.4-0.5,0.7-1.3,0.9-2.2c0.2-0.9,0.3-2.1,0.3-3.6c0-2.4-0.4-4.2-1.2-5.4c-0.8-1.1-1.9-1.7-3.4-1.8V56.2z"/>
	<path class="st2" d="M374.2,44.9c0,0.8-0.1,1.6-0.3,2.4c-0.2,0.8-0.6,1.5-1.1,2.1c-0.5,0.6-1.1,1.1-1.9,1.4
		c-0.8,0.4-1.8,0.5-2.9,0.5h-3.7v8.8h-2.6V38.4h6.2c2,0,3.6,0.5,4.7,1.6C373.7,41.1,374.2,42.7,374.2,44.9z M371.6,44.9
		c0-1.3-0.3-2.2-0.9-3c-0.6-0.7-1.6-1.1-2.9-1.1h-3.5V49h3.6c0.7,0,1.3-0.1,1.8-0.3c0.5-0.2,0.9-0.5,1.2-0.9
		c0.3-0.4,0.5-0.8,0.6-1.3C371.5,45.9,371.6,45.4,371.6,44.9z"/>
	<path class="st2" d="M389,53.8c0,1-0.2,1.9-0.5,2.7c-0.3,0.8-0.8,1.5-1.3,2.1c-0.6,0.6-1.2,1-2,1.3c-0.8,0.3-1.6,0.5-2.6,0.5
		c-1.2,0-2.1-0.2-3-0.6c-0.8-0.4-1.5-0.9-2-1.5c-0.5-0.6-0.9-1.4-1.1-2.2c-0.2-0.8-0.3-1.7-0.3-2.6v-8.8c0-0.7,0.1-1.5,0.3-2.3
		c0.2-0.8,0.6-1.5,1.1-2.1c0.5-0.6,1.2-1.1,2-1.5c0.8-0.4,1.8-0.6,3-0.6c1.1,0,2.1,0.2,2.9,0.6c0.8,0.4,1.5,0.9,2,1.5
		c0.5,0.6,0.9,1.3,1.2,2.1c0.3,0.8,0.4,1.6,0.4,2.4V53.8z M386.3,44.7c0-0.3-0.1-0.7-0.2-1.2c-0.1-0.5-0.3-0.9-0.6-1.3
		c-0.3-0.4-0.7-0.8-1.2-1.1c-0.5-0.3-1.1-0.5-1.9-0.5c-0.8,0-1.4,0.1-1.9,0.4c-0.5,0.3-0.9,0.6-1.2,1c-0.3,0.4-0.5,0.9-0.6,1.3
		c-0.1,0.5-0.2,0.9-0.2,1.3l0,8.6c0,0.6,0.1,1.2,0.2,1.8c0.1,0.6,0.4,1,0.7,1.4s0.7,0.7,1.2,1c0.5,0.2,1.1,0.4,1.8,0.4
		c0.5,0,1-0.1,1.4-0.3c0.5-0.2,0.8-0.4,1.2-0.8c0.3-0.3,0.6-0.7,0.8-1.2c0.2-0.5,0.3-1,0.3-1.6V44.7z"/>
	<path class="st2" d="M405,54c0,2.1-0.5,3.6-1.6,4.7c-1.1,1.1-2.5,1.6-4.3,1.6h-6.7V38.4h6.3c2,0,3.5,0.5,4.5,1.6
		c1,1,1.5,2.4,1.5,4.2c0,1-0.2,1.9-0.6,2.7c-0.4,0.8-1.1,1.4-2.2,2v0.1c0.6,0.1,1,0.4,1.4,0.7c0.4,0.3,0.7,0.7,1,1.2
		c0.3,0.5,0.4,1,0.5,1.5C404.9,52.8,405,53.4,405,54z M395,40.7v7h3.4c1.3,0,2.2-0.3,2.7-1c0.6-0.7,0.9-1.5,0.9-2.6
		c0-1.1-0.3-1.9-0.9-2.5c-0.6-0.6-1.5-0.9-2.7-0.9H395z M395,50v7.7h3.8c0.7,0,1.3-0.1,1.7-0.3c0.5-0.2,0.8-0.5,1.1-0.8
		c0.3-0.4,0.5-0.8,0.6-1.2c0.1-0.5,0.2-1,0.2-1.5c0-1.1-0.3-2-0.8-2.7c-0.6-0.7-1.5-1.1-2.8-1.1H395z"/>
	<path class="st2" d="M420.5,53.8c0,1-0.2,1.9-0.5,2.7c-0.3,0.8-0.8,1.5-1.3,2.1c-0.6,0.6-1.2,1-2,1.3c-0.8,0.3-1.6,0.5-2.6,0.5
		c-1.2,0-2.1-0.2-3-0.6c-0.8-0.4-1.5-0.9-2-1.5c-0.5-0.6-0.9-1.4-1.1-2.2c-0.2-0.8-0.3-1.7-0.3-2.6v-8.8c0-0.7,0.1-1.5,0.3-2.3
		c0.2-0.8,0.6-1.5,1.1-2.1c0.5-0.6,1.2-1.1,2-1.5c0.8-0.4,1.8-0.6,3-0.6c1.1,0,2.1,0.2,2.9,0.6c0.8,0.4,1.5,0.9,2,1.5
		c0.5,0.6,0.9,1.3,1.2,2.1c0.3,0.8,0.4,1.6,0.4,2.4V53.8z M417.8,44.7c0-0.3-0.1-0.7-0.2-1.2c-0.1-0.5-0.3-0.9-0.6-1.3
		c-0.3-0.4-0.7-0.8-1.2-1.1c-0.5-0.3-1.1-0.5-1.9-0.5c-0.8,0-1.4,0.1-1.9,0.4c-0.5,0.3-0.9,0.6-1.2,1c-0.3,0.4-0.5,0.9-0.6,1.3
		c-0.1,0.5-0.2,0.9-0.2,1.3l0,8.6c0,0.6,0.1,1.2,0.2,1.8c0.1,0.6,0.4,1,0.7,1.4s0.7,0.7,1.2,1c0.5,0.2,1.1,0.4,1.8,0.4
		c0.5,0,1-0.1,1.4-0.3c0.5-0.2,0.8-0.4,1.2-0.8c0.3-0.3,0.6-0.7,0.8-1.2c0.2-0.5,0.3-1,0.3-1.6V44.7z"/>
	<path class="st2" d="M426.5,40.8v19.4h-2.6V38.4h11.3v2.4H426.5z"/>
	<path class="st2" d="M449.9,53.8c0,1-0.2,1.9-0.5,2.7c-0.3,0.8-0.8,1.5-1.3,2.1c-0.6,0.6-1.2,1-2,1.3c-0.8,0.3-1.6,0.5-2.6,0.5
		c-1.2,0-2.1-0.2-3-0.6c-0.8-0.4-1.5-0.9-2-1.5c-0.5-0.6-0.9-1.4-1.1-2.2c-0.2-0.8-0.3-1.7-0.3-2.6v-8.8c0-0.7,0.1-1.5,0.3-2.3
		c0.2-0.8,0.6-1.5,1.1-2.1c0.5-0.6,1.2-1.1,2-1.5c0.8-0.4,1.8-0.6,3-0.6c1.1,0,2.1,0.2,2.9,0.6c0.8,0.4,1.5,0.9,2,1.5
		c0.5,0.6,0.9,1.3,1.2,2.1c0.3,0.8,0.4,1.6,0.4,2.4V53.8z M447.3,44.7c0-0.3-0.1-0.7-0.2-1.2c-0.1-0.5-0.3-0.9-0.6-1.3
		c-0.3-0.4-0.7-0.8-1.2-1.1c-0.5-0.3-1.1-0.5-1.9-0.5c-0.8,0-1.4,0.1-1.9,0.4c-0.5,0.3-0.9,0.6-1.2,1c-0.3,0.4-0.5,0.9-0.6,1.3
		c-0.1,0.5-0.2,0.9-0.2,1.3l0,8.6c0,0.6,0.1,1.2,0.2,1.8c0.1,0.6,0.4,1,0.7,1.4s0.7,0.7,1.2,1c0.5,0.2,1.1,0.4,1.8,0.4
		c0.5,0,1-0.1,1.4-0.3c0.5-0.2,0.8-0.4,1.2-0.8c0.3-0.3,0.6-0.7,0.8-1.2c0.2-0.5,0.3-1,0.3-1.6V44.7z"/>
	<path class="st2" d="M320.3,82.6c0,0.8-0.1,1.6-0.3,2.4c-0.2,0.8-0.6,1.5-1.1,2.1c-0.5,0.6-1.1,1.1-1.9,1.4
		c-0.8,0.4-1.8,0.5-2.9,0.5h-3.7v8.8h-2.6V76h6.2c2,0,3.6,0.5,4.7,1.6C319.7,78.7,320.3,80.4,320.3,82.6z M317.7,82.6
		c0-1.3-0.3-2.2-0.9-3c-0.6-0.7-1.6-1.1-2.9-1.1h-3.5v8.2h3.6c0.7,0,1.3-0.1,1.8-0.3c0.5-0.2,0.9-0.5,1.2-0.9
		c0.3-0.4,0.5-0.8,0.6-1.3C317.6,83.6,317.7,83.1,317.7,82.6z"/>
	<path class="st2" d="M332.3,97.9l-1.4-5h-7l-1.4,5h-2.7l6.3-21.9h2.4l6.4,21.9H332.3z M328.7,84.9l-1.2-4.8h-0.1l-1.2,4.8l-1.6,5.7
		h5.8L328.7,84.9z"/>
	<path class="st2" d="M341.9,98.1c-0.8,0-1.6-0.1-2.3-0.3c-0.7-0.2-1.4-0.5-1.9-0.9c-0.6-0.4-1-0.9-1.4-1.5
		c-0.4-0.6-0.6-1.3-0.7-2.1l2.5-0.9c0.2,1.1,0.6,1.9,1.4,2.4c0.7,0.5,1.6,0.8,2.5,0.8c1.1,0,2-0.3,2.7-1c0.7-0.6,1.1-1.7,1.1-3.2
		c0-1.2-0.3-2.1-0.8-2.9c-0.5-0.7-1.4-1.1-2.6-1.1h-1.9v-2.3h1.9c1.1,0,1.9-0.3,2.4-1c0.5-0.7,0.8-1.6,0.8-2.6c0-1.2-0.3-2-1-2.5
		c-0.6-0.5-1.5-0.8-2.5-0.8c-1,0-1.8,0.3-2.5,0.9c-0.6,0.6-1.1,1.3-1.3,2.3l-2.5-0.8c0.3-1.5,1-2.6,2.2-3.5c1.1-0.8,2.5-1.3,4.1-1.3
		c2,0,3.5,0.5,4.5,1.4c1,0.9,1.5,2.3,1.5,4.2c0,0.4,0,0.8-0.1,1.3c-0.1,0.5-0.2,0.9-0.4,1.4c-0.2,0.5-0.5,0.9-0.8,1.3
		c-0.3,0.4-0.7,0.7-1.2,0.9v0.1c0.6,0.3,1.1,0.6,1.4,1c0.4,0.4,0.6,0.8,0.8,1.3s0.3,1,0.4,1.4c0.1,0.5,0.1,1,0.1,1.4
		c0,2-0.5,3.5-1.6,4.7C345.6,97.5,344,98.1,341.9,98.1z"/>
	<path class="st2" d="M364.5,91.6c0,2.1-0.5,3.6-1.6,4.7c-1.1,1.1-2.5,1.6-4.3,1.6h-6.7V76h6.3c2,0,3.5,0.5,4.5,1.6
		c1,1,1.5,2.4,1.5,4.2c0,1-0.2,1.9-0.6,2.7c-0.4,0.8-1.1,1.4-2.2,2v0.1c0.6,0.1,1,0.4,1.4,0.7c0.4,0.3,0.7,0.7,1,1.2
		c0.3,0.5,0.4,1,0.5,1.5C364.4,90.5,364.5,91.1,364.5,91.6z M354.5,78.4v7h3.4c1.3,0,2.2-0.3,2.7-1c0.6-0.7,0.9-1.5,0.9-2.6
		c0-1.1-0.3-1.9-0.9-2.5c-0.6-0.6-1.5-0.9-2.7-0.9H354.5z M354.5,87.7v7.7h3.8c0.7,0,1.3-0.1,1.7-0.3c0.5-0.2,0.8-0.5,1.1-0.8
		c0.3-0.4,0.5-0.8,0.6-1.2c0.1-0.5,0.2-1,0.2-1.5c0-1.1-0.3-2-0.8-2.7c-0.6-0.7-1.5-1.1-2.8-1.1H354.5z"/>
	<path class="st2" d="M367.8,97.9V76h2.6v16.6l0.1,0l3.3-6.5L379,76h2.5v21.9h-2.6V81.3h-0.1l-3,6.1l-5.4,10.6H367.8z"/>
	<path class="st2" d="M391.1,78.4v19.5h-2.6V78.4h-5V76H396v2.4H391.1z"/>
	<path class="st2" d="M398.1,97.9V76h2.6v16.6l0.1,0l3.3-6.5l5.2-10.1h2.5v21.9h-2.6V81.3h-0.1l-3,6.1l-5.4,10.6H398.1z"/>
	<path class="st2" d="M425.3,88.2h-2.6c-0.4,0-0.7,0-1.1,0.1c-0.4,0.1-0.7,0.3-1.1,0.5c-0.4,0.3-0.7,0.6-1,1.1
		c-0.3,0.5-0.5,1.1-0.7,1.8l-1.4,6.2h-2.8l1.6-6.6c0.2-0.9,0.5-1.7,0.9-2.4c0.4-0.6,0.9-1.1,1.6-1.5c-0.6-0.2-1.2-0.4-1.6-0.8
		c-0.4-0.4-0.8-0.8-1-1.2c-0.3-0.5-0.4-0.9-0.5-1.5c-0.1-0.5-0.1-1-0.1-1.6c0-1,0.1-1.8,0.4-2.6c0.3-0.8,0.6-1.5,1.1-2
		c0.5-0.6,1.1-1,1.9-1.3c0.7-0.3,1.6-0.5,2.5-0.5h6.5v21.9h-2.6V88.2z M418.1,82.4c0,1.2,0.3,2.1,1,2.6c0.7,0.6,1.6,0.8,2.7,0.8h3.5
		v-7.5h-3.5c-1.3,0-2.2,0.4-2.8,1.1C418.4,80.2,418.1,81.2,418.1,82.4z"/>
	<path class="st2" d="M307.6,135.6v-21.8h2.6v9.5h2.3c0.3,0,0.7,0,1-0.1c0.4-0.1,0.7-0.2,1.1-0.4c0.3-0.2,0.7-0.5,1-1
		c0.3-0.4,0.5-1,0.8-1.7l1.8-6.3h2.5l-1.7,6.4c-0.3,1.1-0.7,2-1.2,2.7c-0.5,0.7-1.1,1.2-1.7,1.4c0.9,0.3,1.5,0.8,2,1.6
		c0.5,0.7,0.8,1.7,1.1,2.7l1.9,7h-2.7l-1.7-6.6c-0.2-0.7-0.4-1.3-0.7-1.8c-0.3-0.5-0.6-0.8-0.9-1c-0.3-0.2-0.7-0.4-1.1-0.5
		c-0.4-0.1-0.8-0.1-1.2-0.1h-2.5v10H307.6z"/>
	<path class="st2" d="M334.1,135.6l-1.4-5h-7l-1.4,5h-2.7l6.3-21.9h2.4l6.4,21.9H334.1z M330.5,122.6l-1.2-4.8h-0.1l-1.2,4.8
		l-1.6,5.7h5.8L330.5,122.6z"/>
	<path class="st2" d="M343.1,125.6c0,1.9-0.1,3.4-0.3,4.7c-0.2,1.2-0.5,2.2-1,3c-0.4,0.8-1,1.4-1.6,1.8c-0.6,0.4-1.4,0.8-2.3,1
		c-0.2-0.3-0.3-0.7-0.5-1c-0.1-0.3-0.3-0.7-0.5-1c0.5-0.3,1-0.6,1.5-0.9c0.4-0.3,0.8-0.7,1.1-1.2c0.3-0.5,0.6-1.2,0.7-2.1
		c0.2-0.9,0.3-2,0.3-3.4v-12.8H352v21.9h-2.6v-19.5h-6.2V125.6z"/>
	<path class="st2" d="M365.2,122.2c-0.9,2.8-1.8,5.6-2.7,8.4c-0.3,1.1-0.7,2-1,2.7c-0.4,0.7-0.7,1.2-1.1,1.5
		c-0.4,0.3-0.8,0.6-1.2,0.7c-0.4,0.1-0.9,0.2-1.3,0.2H356v-2.3h1.5c0.4,0,0.8-0.2,1.2-0.5c0.4-0.3,0.7-0.9,1-1.6l0.3-1
		c-0.9-2.8-1.8-5.5-2.8-8.3c-0.9-2.7-1.8-5.5-2.8-8.3h2.7l2.4,7.4l1.8,5.6h0.1c0.1-0.2,0.2-0.6,0.4-1.3c0.2-0.7,0.4-1.4,0.7-2.3
		c0.3-0.9,0.5-1.8,0.8-2.8c0.3-1,0.6-2,0.8-2.9s0.5-1.7,0.7-2.4c0.2-0.7,0.3-1.1,0.4-1.4h2.6C367,116.6,366.1,119.4,365.2,122.2z"/>
	<path class="st2" d="M379.3,113.7h2.6v9.6h2c0.3,0,0.7,0,1-0.1c0.4-0.1,0.7-0.2,1.1-0.4c0.3-0.2,0.7-0.5,1-1c0.3-0.4,0.5-1,0.7-1.7
		l1.8-6.3h2.5l-1.7,6.4c-0.3,1.1-0.7,2-1.1,2.7c-0.5,0.7-1.1,1.2-1.7,1.4c0.9,0.3,1.5,0.8,2,1.6c0.5,0.7,0.8,1.7,1.1,2.7l1.8,7h-2.7
		l-1.7-6.6c-0.2-0.7-0.4-1.3-0.7-1.8c-0.3-0.4-0.6-0.8-0.9-1c-0.3-0.2-0.7-0.4-1.1-0.5c-0.4-0.1-0.8-0.1-1.2-0.1h-2.1v10h-2.6v-10
		h-2.2c-0.4,0-0.8,0-1.2,0.1c-0.4,0.1-0.7,0.2-1.1,0.5c-0.3,0.2-0.6,0.6-0.9,1c-0.3,0.4-0.5,1-0.7,1.8l-1.7,6.6h-2.7l1.9-7
		c0.3-1.1,0.6-2,1.1-2.7c0.5-0.7,1.1-1.3,2-1.6c-0.8-0.2-1.4-0.7-1.8-1.4c-0.4-0.7-0.8-1.6-1.1-2.7l-1.7-6.4h2.5l1.8,6.3
		c0.2,0.7,0.4,1.3,0.7,1.7c0.3,0.4,0.6,0.7,1,1c0.3,0.2,0.7,0.4,1.1,0.4c0.4,0.1,0.7,0.1,1,0.1h2V113.7z"/>
	<path class="st2" d="M406.9,131.5c-0.4,1.4-1.1,2.4-2.2,3.2c-1.1,0.7-2.4,1.1-3.9,1.1c-1,0-1.9-0.2-2.7-0.5c-0.8-0.3-1.5-0.8-2-1.4
		c-0.5-0.6-1-1.3-1.3-2.1s-0.4-1.7-0.4-2.6v-9.2c0-0.9,0.1-1.8,0.4-2.6c0.3-0.8,0.7-1.5,1.2-2.1c0.5-0.6,1.2-1,2-1.4
		c0.8-0.3,1.7-0.5,2.7-0.5c1.5,0,2.8,0.4,3.8,1.1c1.1,0.7,1.8,1.8,2.2,3.1l-2.5,1c-0.2-0.8-0.6-1.4-1.2-1.9
		c-0.6-0.5-1.4-0.7-2.4-0.7c-0.6,0-1.1,0.1-1.6,0.3c-0.5,0.2-0.9,0.5-1.2,0.9c-0.3,0.4-0.6,0.8-0.7,1.3c-0.2,0.5-0.3,1-0.3,1.5v9.3
		c0,0.5,0.1,1,0.3,1.5c0.2,0.5,0.4,0.9,0.7,1.3c0.3,0.4,0.7,0.7,1.2,0.9c0.5,0.2,1,0.3,1.6,0.3c0.9,0,1.7-0.2,2.3-0.7
		c0.6-0.5,1-1.1,1.2-1.9L406.9,131.5z"/>
	<path class="st2" d="M409.6,135.6v-21.8h2.6v9.5h2.3c0.3,0,0.7,0,1-0.1c0.4-0.1,0.7-0.2,1.1-0.4c0.3-0.2,0.7-0.5,1-1
		c0.3-0.4,0.5-1,0.8-1.7l1.8-6.3h2.5l-1.7,6.4c-0.3,1.1-0.7,2-1.2,2.7c-0.5,0.7-1.1,1.2-1.7,1.4c0.9,0.3,1.5,0.8,2,1.6
		c0.5,0.7,0.8,1.7,1.1,2.7l1.9,7h-2.7l-1.7-6.6c-0.2-0.7-0.4-1.3-0.7-1.8c-0.3-0.5-0.6-0.8-0.9-1c-0.3-0.2-0.7-0.4-1.1-0.5
		c-0.4-0.1-0.8-0.1-1.2-0.1h-2.5v10H409.6z"/>
	<path class="st2" d="M437.6,129.2c0,1-0.2,1.9-0.5,2.7c-0.3,0.8-0.8,1.5-1.3,2.1c-0.6,0.6-1.2,1-2,1.3c-0.8,0.3-1.6,0.5-2.6,0.5
		c-1.2,0-2.1-0.2-3-0.6c-0.8-0.4-1.5-0.9-2-1.5c-0.5-0.6-0.9-1.4-1.1-2.2c-0.2-0.8-0.3-1.7-0.3-2.6v-8.8c0-0.7,0.1-1.5,0.3-2.3
		c0.2-0.8,0.6-1.5,1.1-2.1c0.5-0.6,1.2-1.1,2-1.5c0.8-0.4,1.8-0.6,3-0.6c1.1,0,2.1,0.2,2.9,0.6c0.8,0.4,1.5,0.9,2,1.5
		c0.5,0.6,0.9,1.3,1.2,2.1c0.3,0.8,0.4,1.6,0.4,2.4V129.2z M434.9,120.1c0-0.3-0.1-0.7-0.2-1.2c-0.1-0.5-0.3-0.9-0.6-1.3
		c-0.3-0.4-0.7-0.8-1.2-1.1c-0.5-0.3-1.1-0.5-1.9-0.5c-0.8,0-1.4,0.1-1.9,0.4c-0.5,0.3-0.9,0.6-1.2,1c-0.3,0.4-0.5,0.9-0.6,1.3
		c-0.1,0.5-0.2,0.9-0.2,1.3l0,8.6c0,0.6,0.1,1.2,0.2,1.8c0.1,0.6,0.4,1,0.7,1.4c0.3,0.4,0.7,0.7,1.2,1c0.5,0.2,1.1,0.4,1.8,0.4
		c0.5,0,1-0.1,1.4-0.3c0.5-0.2,0.8-0.4,1.2-0.8c0.3-0.3,0.6-0.7,0.8-1.2c0.2-0.5,0.3-1,0.3-1.6V120.1z"/>
	<path class="st2" d="M441,135.6v-21.9h2.6v16.6l0.1,0l3.3-6.5l5.2-10.1h2.5v21.9h-2.6v-16.6H452l-3,6.1l-5.4,10.6H441z
		 M445.6,108.4c0,0.2,0.1,0.4,0.2,0.7c0.1,0.2,0.3,0.4,0.4,0.6c0.2,0.2,0.4,0.4,0.7,0.5c0.3,0.1,0.5,0.2,0.9,0.2
		c0.4,0,0.7-0.1,0.9-0.2c0.3-0.1,0.5-0.3,0.7-0.5c0.2-0.2,0.3-0.4,0.4-0.6c0.1-0.2,0.1-0.5,0.1-0.7h2.1c0,0.4-0.1,0.9-0.3,1.3
		c-0.2,0.5-0.4,0.9-0.7,1.3c-0.3,0.4-0.8,0.7-1.3,1c-0.5,0.3-1.2,0.4-2,0.4c-0.8,0-1.5-0.1-2-0.4c-0.5-0.3-1-0.6-1.3-1
		c-0.3-0.4-0.6-0.8-0.7-1.3c-0.2-0.5-0.2-0.9-0.2-1.3H445.6z"/>
	<path class="st2" d="M477.4,129.2c0,1-0.2,1.9-0.5,2.7c-0.3,0.8-0.8,1.5-1.3,2.1c-0.6,0.6-1.2,1-2,1.3c-0.8,0.3-1.6,0.5-2.6,0.5
		c-1.2,0-2.1-0.2-3-0.6c-0.8-0.4-1.5-0.9-2-1.5c-0.5-0.6-0.9-1.4-1.1-2.2c-0.2-0.8-0.3-1.7-0.3-2.6v-8.8c0-0.7,0.1-1.5,0.3-2.3
		c0.2-0.8,0.6-1.5,1.1-2.1c0.5-0.6,1.2-1.1,2-1.5c0.8-0.4,1.8-0.6,3-0.6c1.1,0,2.1,0.2,2.9,0.6c0.8,0.4,1.5,0.9,2,1.5
		c0.5,0.6,0.9,1.3,1.2,2.1c0.3,0.8,0.4,1.6,0.4,2.4V129.2z M474.7,120.1c0-0.3-0.1-0.7-0.2-1.2c-0.1-0.5-0.3-0.9-0.6-1.3
		c-0.3-0.4-0.7-0.8-1.2-1.1c-0.5-0.3-1.1-0.5-1.9-0.5s-1.4,0.1-1.9,0.4c-0.5,0.3-0.9,0.6-1.2,1c-0.3,0.4-0.5,0.9-0.6,1.3
		c-0.1,0.5-0.2,0.9-0.2,1.3l0,8.6c0,0.6,0.1,1.2,0.2,1.8s0.4,1,0.7,1.4c0.3,0.4,0.7,0.7,1.2,1c0.5,0.2,1.1,0.4,1.8,0.4
		c0.5,0,1-0.1,1.4-0.3c0.5-0.2,0.8-0.4,1.2-0.8c0.3-0.3,0.6-0.7,0.8-1.2c0.2-0.5,0.3-1,0.3-1.6V120.1z"/>
	<path class="st2" d="M483.4,122.8h3.5c1.1,0,2.1,0.2,2.9,0.5c0.8,0.3,1.5,0.7,2,1.3c0.5,0.5,0.9,1.2,1.1,2c0.3,0.8,0.4,1.6,0.4,2.5
		c0,2.2-0.5,3.8-1.6,4.9c-1.1,1.1-2.7,1.6-4.7,1.6h-6.3v-21.9h10.9v2.4h-8.2V122.8z M483.4,133.1h3.5c1.4,0,2.3-0.4,2.9-1.1
		c0.6-0.7,0.9-1.7,0.9-2.9c0-0.5-0.1-1-0.2-1.5c-0.1-0.5-0.3-0.9-0.6-1.2c-0.3-0.4-0.7-0.6-1.2-0.8c-0.5-0.2-1.1-0.3-1.8-0.3h-3.5
		V133.1z"/>
	<path class="st2" d="M500.5,125.6c0,1.9-0.1,3.4-0.3,4.7c-0.2,1.2-0.5,2.2-1,3c-0.4,0.8-1,1.4-1.6,1.8c-0.6,0.4-1.4,0.8-2.3,1
		c-0.2-0.3-0.3-0.7-0.5-1c-0.1-0.3-0.3-0.7-0.5-1c0.5-0.3,1-0.6,1.5-0.9c0.4-0.3,0.8-0.7,1.1-1.2c0.3-0.5,0.6-1.2,0.7-2.1
		c0.2-0.9,0.3-2,0.3-3.4v-12.8h11.3v21.9h-2.6v-19.5h-6.2V125.6z"/>
	<path class="st2" d="M524.1,135.6l-1.4-5h-7l-1.4,5h-2.7l6.3-21.9h2.4l6.4,21.9H524.1z M520.5,122.6l-1.2-4.8h-0.1l-1.2,4.8
		l-1.6,5.7h5.8L520.5,122.6z"/>
	<path class="st2" d="M541,131.5c-0.4,1.4-1.1,2.4-2.2,3.2c-1.1,0.7-2.4,1.1-3.9,1.1c-1,0-1.9-0.2-2.7-0.5c-0.8-0.3-1.5-0.8-2-1.4
		c-0.5-0.6-1-1.3-1.3-2.1c-0.3-0.8-0.4-1.7-0.4-2.6v-9.2c0-0.9,0.1-1.8,0.4-2.6c0.3-0.8,0.7-1.5,1.2-2.1c0.5-0.6,1.2-1,2-1.4
		c0.8-0.3,1.7-0.5,2.7-0.5c1.5,0,2.8,0.4,3.8,1.1c1.1,0.7,1.8,1.8,2.2,3.1l-2.5,1c-0.2-0.8-0.6-1.4-1.2-1.9
		c-0.6-0.5-1.4-0.7-2.4-0.7c-0.6,0-1.1,0.1-1.6,0.3c-0.5,0.2-0.9,0.5-1.2,0.9c-0.3,0.4-0.6,0.8-0.7,1.3c-0.2,0.5-0.3,1-0.3,1.5v9.3
		c0,0.5,0.1,1,0.3,1.5c0.2,0.5,0.4,0.9,0.7,1.3c0.3,0.4,0.7,0.7,1.2,0.9c0.5,0.2,1,0.3,1.6,0.3c0.9,0,1.7-0.2,2.3-0.7
		c0.6-0.5,1-1.1,1.2-1.9L541,131.5z"/>
	<path class="st2" d="M549.4,116.1v19.5h-2.6v-19.5h-5v-2.4h12.6v2.4H549.4z"/>
	<path class="st2" d="M556.4,135.6v-21.9h2.6v16.6l0.1,0l3.3-6.5l5.2-10.1h2.5v21.9h-2.6v-16.6h-0.1l-3,6.1l-5.4,10.6H556.4z"/>
</g>
<polygon class="st0" points="0,135.3 33.8,135.3 33.8,81.5 0,47.7 "/>
<polygon class="st1" points="33.8,33.8 33.8,81.5 87.6,135.3 111.4,111.4 "/>
<polygon class="st2" points="141.4,81.5 141.4,81.5 175.1,115.2 175.1,47.7 141.4,81.5 "/>
<polygon class="st0" points="141.4,81.5 141.4,135.3 175.1,135.3 175.1,115.2 141.4,81.5 "/>
<polygon class="st0" points="208.4,0 208.4,47.7 218.3,57.6 242.1,33.8 "/>
<polygon class="st1" points="218.3,57.6 208.4,67.5 208.4,115.2 242.1,81.5 "/>
</svg>
